<svg xmlns="http://www.w3.org/2000/svg" viewBox="0 0 1186.62 427.3"><defs><style>.cls-1,.cls-10,.cls-100,.cls-101,.cls-102,.cls-103,.cls-104,.cls-105,.cls-106,.cls-107,.cls-108,.cls-109,.cls-11,.cls-110,.cls-111,.cls-112,.cls-113,.cls-114,.cls-115,.cls-116,.cls-117,.cls-118,.cls-119,.cls-12,.cls-120,.cls-121,.cls-122,.cls-123,.cls-124,.cls-125,.cls-126,.cls-127,.cls-128,.cls-129,.cls-13,.cls-130,.cls-131,.cls-132,.cls-133,.cls-134,.cls-135,.cls-136,.cls-137,.cls-138,.cls-139,.cls-14,.cls-140,.cls-141,.cls-142,.cls-143,.cls-144,.cls-145,.cls-146,.cls-147,.cls-148,.cls-149,.cls-15,.cls-150,.cls-151,.cls-152,.cls-153,.cls-154,.cls-155,.cls-156,.cls-157,.cls-158,.cls-159,.cls-16,.cls-160,.cls-161,.cls-162,.cls-163,.cls-164,.cls-165,.cls-166,.cls-167,.cls-168,.cls-169,.cls-17,.cls-170,.cls-171,.cls-172,.cls-173,.cls-174,.cls-175,.cls-176,.cls-177,.cls-178,.cls-179,.cls-18,.cls-180,.cls-181,.cls-182,.cls-183,.cls-184,.cls-185,.cls-186,.cls-187,.cls-188,.cls-189,.cls-19,.cls-190,.cls-191,.cls-192,.cls-193,.cls-194,.cls-195,.cls-196,.cls-197,.cls-198,.cls-199,.cls-2,.cls-20,.cls-21,.cls-22,.cls-23,.cls-24,.cls-25,.cls-26,.cls-27,.cls-28,.cls-29,.cls-3,.cls-30,.cls-31,.cls-32,.cls-33,.cls-34,.cls-35,.cls-36,.cls-37,.cls-38,.cls-39,.cls-4,.cls-40,.cls-41,.cls-42,.cls-43,.cls-44,.cls-45,.cls-46,.cls-47,.cls-48,.cls-49,.cls-5,.cls-50,.cls-51,.cls-52,.cls-53,.cls-54,.cls-55,.cls-56,.cls-57,.cls-58,.cls-59,.cls-6,.cls-60,.cls-61,.cls-62,.cls-63,.cls-64,.cls-65,.cls-66,.cls-67,.cls-68,.cls-69,.cls-7,.cls-70,.cls-71,.cls-72,.cls-73,.cls-74,.cls-75,.cls-76,.cls-77,.cls-78,.cls-79,.cls-8,.cls-80,.cls-81,.cls-82,.cls-83,.cls-84,.cls-85,.cls-86,.cls-87,.cls-88,.cls-89,.cls-9,.cls-90,.cls-91,.cls-92,.cls-93,.cls-94,.cls-95,.cls-96,.cls-97,.cls-98,.cls-99{fill:none;stroke-miterlimit:10;}.cls-1{stroke:#ed2371;}.cls-2{stroke:#ec2371;}.cls-3{stroke:#eb2471;}.cls-4{stroke:#ea2471;}.cls-5{stroke:#e92471;}.cls-6{stroke:#e82572;}.cls-7{stroke:#e72572;}.cls-8{stroke:#e62672;}.cls-9{stroke:#e52672;}.cls-10{stroke:#e42672;}.cls-11{stroke:#e42773;}.cls-12{stroke:#e32773;}.cls-13{stroke:#e22773;}.cls-14{stroke:#e12873;}.cls-15{stroke:#e02873;}.cls-16{stroke:#e02874;}.cls-17{stroke:#df2874;}.cls-18{stroke:#de2874;}.cls-19{stroke:#de2974;}.cls-20{stroke:#dd2974;}.cls-21{stroke:#dc2974;}.cls-22{stroke:#db2975;}.cls-23{stroke:#db2a75;}.cls-24{stroke:#da2a75;}.cls-25{stroke:#d92a75;}.cls-26{stroke:#d82b75;}.cls-27{stroke:#d72b76;}.cls-28{stroke:#d62b76;}.cls-29{stroke:#d52c76;}.cls-30{stroke:#d42c76;}.cls-31{stroke:#d32c77;}.cls-32{stroke:#d22c77;}.cls-33{stroke:#d22d77;}.cls-34{stroke:#d12d77;}.cls-35{stroke:#d02d77;}.cls-36{stroke:#cf2d78;}.cls-37{stroke:#ce2e78;}.cls-38{stroke:#cd2e78;}.cls-39{stroke:#cc2e78;}.cls-40{stroke:#cb2f79;}.cls-41{stroke:#ca2f79;}.cls-42{stroke:#c92f79;}.cls-43{stroke:#c82f79;}.cls-44{stroke:#c73079;}.cls-45{stroke:#c7307a;}.cls-46{stroke:#c6307a;}.cls-47{stroke:#c5307a;}.cls-48{stroke:#c4307a;}.cls-49{stroke:#c3317b;}.cls-50{stroke:#c2317b;}.cls-51{stroke:#c1317b;}.cls-52{stroke:#c0317b;}.cls-53{stroke:#c0327b;}.cls-54{stroke:#bf327c;}.cls-55{stroke:#be327c;}.cls-56{stroke:#bd327c;}.cls-57{stroke:#bc327c;}.cls-58{stroke:#bb337c;}.cls-59{stroke:#bb337d;}.cls-60{stroke:#ba337d;}.cls-61{stroke:#b9337d;}.cls-62{stroke:#b8337d;}.cls-63{stroke:#b7347d;}.cls-64{stroke:#b7347e;}.cls-65{stroke:#b6347e;}.cls-66{stroke:#b5347e;}.cls-67{stroke:#b4347e;}.cls-68{stroke:#b3347f;}.cls-69{stroke:#b2357f;}.cls-70{stroke:#b1357f;}.cls-71{stroke:#b0357f;}.cls-72{stroke:#af3580;}.cls-73{stroke:#ae3680;}.cls-74{stroke:#ad3680;}.cls-75{stroke:#ac3680;}.cls-76{stroke:#ab3680;}.cls-77{stroke:#ab3681;}.cls-78{stroke:#aa3681;}.cls-79{stroke:#a93781;}.cls-80{stroke:#a83781;}.cls-81{stroke:#a73781;}.cls-82{stroke:#a63782;}.cls-83{stroke:#a53782;}.cls-84{stroke:#a43782;}.cls-85{stroke:#a43882;}.cls-86{stroke:#a33883;}.cls-87{stroke:#a23883;}.cls-88{stroke:#a13883;}.cls-89{stroke:#a03883;}.cls-90{stroke:#9f3883;}.cls-91{stroke:#9f3884;}.cls-92{stroke:#9e3884;}.cls-93{stroke:#9d3984;}.cls-94{stroke:#9c3984;}.cls-95{stroke:#9b3984;}.cls-96{stroke:#9b3985;}.cls-97{stroke:#9a3985;}.cls-98{stroke:#993985;}.cls-99{stroke:#983985;}.cls-100{stroke:#973a85;}.cls-101{stroke:#963a86;}.cls-102{stroke:#953a86;}.cls-103{stroke:#943a86;}.cls-104{stroke:#933a86;}.cls-105{stroke:#923a87;}.cls-106{stroke:#913b87;}.cls-107{stroke:#903b87;}.cls-108{stroke:#8f3b87;}.cls-109{stroke:#8e3b88;}.cls-110{stroke:#8d3b88;}.cls-111{stroke:#8c3b88;}.cls-112{stroke:#8b3b88;}.cls-113{stroke:#8a3b89;}.cls-114{stroke:#893c89;}.cls-115{stroke:#883c89;}.cls-116{stroke:#873c89;}.cls-117{stroke:#863c89;}.cls-118{stroke:#863c8a;}.cls-119{stroke:#853c8a;}.cls-120{stroke:#843c8a;}.cls-121{stroke:#833c8a;}.cls-122{stroke:#823c8a;}.cls-123{stroke:#813d8b;}.cls-124{stroke:#803d8b;}.cls-125{stroke:#7f3d8b;}.cls-126{stroke:#7e3d8b;}.cls-127{stroke:#7d3d8c;}.cls-128{stroke:#7c3d8c;}.cls-129{stroke:#7b3d8c;}.cls-130{stroke:#7a3d8c;}.cls-131{stroke:#793d8d;}.cls-132{stroke:#793e8d;}.cls-133{stroke:#783e8d;}.cls-134{stroke:#773e8d;}.cls-135{stroke:#763e8d;}.cls-136{stroke:#753e8e;}.cls-137{stroke:#743e8e;}.cls-138{stroke:#733e8e;}.cls-139{stroke:#723e8e;}.cls-140{stroke:#713e8e;}.cls-141{stroke:#703e8f;}.cls-142{stroke:#6f3e8f;}.cls-143{stroke:#6e3e8f;}.cls-144{stroke:#6d3f8f;}.cls-145{stroke:#6c3f90;}.cls-146{stroke:#6b3f90;}.cls-147{stroke:#6a3f90;}.cls-148{stroke:#693f90;}.cls-149{stroke:#683f90;}.cls-150{stroke:#673f91;}.cls-151{stroke:#663f91;}.cls-152{stroke:#653f91;}.cls-153{stroke:#643f91;}.cls-154{stroke:#633f91;}.cls-155{stroke:#623f92;}.cls-156{stroke:#614092;}.cls-157{stroke:#604092;}.cls-158{stroke:#5f4092;}.cls-159{stroke:#5e4092;}.cls-160{stroke:#5d4093;}.cls-161{stroke:#5c4093;}.cls-162{stroke:#5b4093;}.cls-163{stroke:#5a4093;}.cls-164{stroke:#594093;}.cls-165{stroke:#584094;}.cls-166{stroke:#574094;}.cls-167{stroke:#564094;}.cls-168{stroke:#554094;}.cls-169{stroke:#544094;}.cls-170{stroke:#534094;}.cls-171{stroke:#524095;}.cls-172{stroke:#514095;}.cls-173{stroke:#504195;}.cls-174{stroke:#4f4195;}.cls-175{stroke:#4e4195;}.cls-176{stroke:#4d4196;}.cls-177{stroke:#4c4196;}.cls-178{stroke:#4b4196;}.cls-179{stroke:#4a4196;}.cls-180{stroke:#494196;}.cls-181{stroke:#484196;}.cls-182{stroke:#474197;}.cls-183{stroke:#464197;}.cls-184{stroke:#454197;}.cls-185{stroke:#434197;}.cls-186{stroke:#424197;}.cls-187{stroke:#414198;}.cls-188{stroke:#404198;}.cls-189{stroke:#3f4298;}.cls-190{stroke:#3e4298;}.cls-191{stroke:#3d4298;}.cls-192{stroke:#3c4299;}.cls-193{stroke:#3b4299;}.cls-194{stroke:#394299;}.cls-195{stroke:#384299;}.cls-196{stroke:#37429a;}.cls-197{stroke:#36429a;}.cls-198{stroke:#34429a;}.cls-199{stroke:#33429b;}</style></defs><title>Asset 1</title><g id="Layer_2" data-name="Layer 2"><g id="Layer_1-2" data-name="Layer 1"><path class="cls-1" d="M9.63,174.52C77,67.29,250.15,399.71,345.12,246.52S902.74-69,830.74,87.2s194.55,234.39,266.55,91.92" transform="translate(0 0)"/><path class="cls-2" d="M9.6,175c50.31-80.17,159.14,84.24,250.65,109.24,31.49,8.59,60.93,1.33,85.29-37.53,34.29-54.53,116-110,203.42-152.9C704.47,17.62,877.36-12.24,831.69,87,760.22,242.12,1026,320.89,1097.66,179" transform="translate(0 0)"/><path class="cls-3" d="M9.56,175.54C60,95,169,260.21,260.58,284.32c31.51,8.27,61,1.15,85.38-37.36C380.37,193,462,138.41,549.57,94.78,705.17,17.51,877.89-11.64,832.63,86.7c-70.94,154.09,194,233.49,265.4,92.21" transform="translate(0 0)"/><path class="cls-4" d="M9.52,176.05c50.65-81,159.8,85.1,251.4,108.31,31.53,8,60.92.92,85.46-37.18C380.8,193.71,462.53,140.06,550.19,95.72,705.88,17.4,878.41-11,833.58,86.46c-70.42,153,193.72,233,264.82,92.35" transform="translate(0 0)"/><path class="cls-5" d="M9.48,176.56C60.3,95.22,169.61,262.09,261.25,284.41c31.56,7.64,60.94.72,85.55-37C381.31,194.48,463,141.7,550.8,96.66,706.59,17.29,878.93-10.44,834.52,86.21,764.64,238.12,1028,318.8,1098.78,178.71" transform="translate(0 0)"/><path class="cls-6" d="M9.44,177.07c51-81.72,160.45,86,252.15,107.39,31.57,7.32,60.94.51,85.62-36.85,34.6-52.37,116.33-104.27,204.21-150C707.3,17.17,879.46-9.84,835.46,86c-69.35,150.83,193.19,232.15,263.69,92.65" transform="translate(0 0)"/><path class="cls-7" d="M9.4,177.59C60.56,95.47,170.18,264,261.93,284.51c31.59,7,60.95.31,85.7-36.68C382.32,196,463.94,144.8,552,98.54,707.83,16.72,880-9.23,836.41,85.71c-68.82,149.74,192.91,231.7,263.11,92.79" transform="translate(0 0)"/><path class="cls-7" d="M9.37,178.1c51.32-82.51,161.1,86.81,252.89,106.45,31.62,6.7,61,.12,85.79-36.5,34.77-51.29,116.37-101.64,204.6-148.57,155.86-82.92,327.85-108.11,284.7-14C769.06,234.12,1030,316.72,1099.89,178.4" transform="translate(0 0)"/><path class="cls-8" d="M9.33,178.61c51.49-82.9,161.43,87.24,253.27,106,31.63,6.38,61-.09,85.87-36.33C383.33,197.52,464.91,148,553.26,100.42,709.19,16.4,881-8,838.3,85.21c-67.76,147.58,192.36,230.81,262,93.09" transform="translate(0 0)"/><path class="cls-9" d="M9.29,179.12C61,95.83,171.05,266.79,262.93,284.65c31.66,6.06,61-.29,86-36.17,34.94-50.19,116.5-98.84,205-147.12C709.86,16.23,881.55-7.43,839.24,85,772,231.45,1031.33,315.32,1100.63,178.2" transform="translate(0 0)"/><path class="cls-10" d="M9.25,179.63c51.83-83.67,162.09,88.1,254,105.06,31.68,5.75,61-.49,86-36,35-49.65,116.58-97.44,205.19-146.4,156-86.23,327.58-109.13,285.7-17.59C773.49,230.12,1032,314.63,1101,178.1" transform="translate(0 0)"/><path class="cls-11" d="M9.21,180.14c52-84.06,162.42,88.53,254.4,104.6,31.69,5.43,61-.69,86.11-35.82,35.12-49.11,116.64-96,205.39-145.68,156.11-87.33,327.48-109.46,286-18.78C775,228.78,1032.67,313.93,1101.37,178" transform="translate(0 0)"/><path class="cls-12" d="M9.18,180.65c52.16-84.45,162.74,89,254.76,104.14,31.72,5.11,61-.9,86.2-35.65,35.21-48.58,116.7-94.64,205.58-145,156.18-88.42,327.4-109.8,286.36-20-65.65,143.23,191.26,229,259.66,93.67" transform="translate(0 0)"/><path class="cls-13" d="M9.14,181.16c52.33-84.84,163.07,89.4,255.14,103.68,31.74,4.79,61-1.1,86.28-35.48,35.3-48,116.77-93.24,205.78-144.24C712.58,15.6,883.64-5,843,84c-65.11,142.15,191,228.57,259.09,93.82" transform="translate(0 0)"/><path class="cls-13" d="M9.1,181.67c52.5-85.23,163.37,90,255.51,103.21,31.76,4.55,61-1.3,86.36-35.3,35.39-47.5,116.84-91.84,206-143.52C713.25,15.44,884.16-4.42,844,83.72c-64.59,141.06,190.71,228.13,258.51,94" transform="translate(0 0)"/><path class="cls-14" d="M9.06,182.18C61.72,96.56,172.76,272.64,265,284.93c31.77,4.23,61-1.51,86.44-35.14C386.87,202.84,468.3,159.36,557.57,107,713.93,15.29,884.68-3.82,844.91,83.47c-64,140,190.44,227.68,257.94,94.12" transform="translate(0 0)"/><path class="cls-15" d="M9,182.69c52.83-86,164,90.91,256.27,102.29,31.79,3.92,61-1.71,86.52-35,35.57-46.42,117-89,206.37-142.07,156.43-92.81,327-111.15,287.68-24.72C782.33,222.11,1036,310.45,1103.22,177.48" transform="translate(0 0)"/><path class="cls-16" d="M9,183.2C62,96.81,173.34,274.55,265.62,285c31.82,3.61,61.06-1.91,86.61-34.79,35.66-45.88,117-87.63,206.57-141.35C715.29,15,885.73-2.61,846.8,83c-63,137.81,189.89,226.79,256.79,94.41" transform="translate(0 0)"/><path class="cls-17" d="M9,183.71C62.11,96.93,173.63,275.5,266,285.07c31.83,3.3,61.06-2.12,86.69-34.62,35.74-45.35,117.1-86.23,206.76-140.63C716,14.83,886.25-2,847.75,82.72,785.28,219.45,1037.36,309.06,1104,177.28" transform="translate(0 0)"/><path class="cls-18" d="M8.91,184.22c53.33-87.17,165,92.24,257.38,100.9,31.86,3,61.08-2.33,86.77-34.45,35.84-44.81,117.18-84.83,207-139.91C716.65,14.68,886.77-1.41,848.69,82.47c-61.93,135.64,189.34,225.9,255.64,94.71" transform="translate(0 0)"/><path class="cls-19" d="M8.87,184.73c53.5-87.56,165.34,92.68,257.76,100.44,31.88,2.67,61.09-2.54,86.85-34.29,35.93-44.27,117.24-83.42,207.16-139.18C717.33,14.53,887.3-.81,849.63,82.22c-61.4,134.56,189.07,225.45,255.07,94.85" transform="translate(0 0)"/><path class="cls-20" d="M8.83,185.25C62.5,97.3,174.5,278.36,267,285.21c31.9,2.37,61.09-2.74,86.93-34.11,36-43.74,117.3-82,207.36-138.46C718,14.38,887.82-.2,850.58,82c-60.88,133.47,188.79,225,254.49,95" transform="translate(0 0)"/><path class="cls-21" d="M8.79,185.76c53.84-88.34,166,93.56,258.51,99.5,31.92,2.05,61.11-2.95,87-33.94,36.11-43.2,117.37-80.61,207.55-137.74C718.69,14.23,888.34.4,851.52,81.73,791.18,214.11,1040,306.28,1105.44,176.87" transform="translate(0 0)"/><path class="cls-22" d="M8.75,186.27c54-88.73,166.34,94,258.89,99,31.94,1.74,61.12-3.16,87.1-33.77,36.2-42.67,117.43-79.2,207.75-137C719.37,14.09,888.87,1,852.47,81.48c-59.82,131.29,188.24,224.1,253.34,95.29" transform="translate(0 0)"/><path class="cls-23" d="M8.72,186.78C62.89,97.66,175.38,281.22,268,285.35c32,1.43,61.14-3.36,87.18-33.59,36.31-42.14,117.51-77.8,208-136.3C720.05,13.94,889.39,1.6,853.41,81.23c-59.28,130.21,188,223.66,252.77,95.44" transform="translate(0 0)"/><path class="cls-24" d="M8.68,187.29c54.34-89.51,167,94.88,259.63,98.11,32,1.12,61.15-3.57,87.26-33.43,36.4-41.6,117.57-76.38,208.15-135.57C720.73,13.8,889.91,2.2,854.36,81c-58.76,129.13,187.69,223.21,252.19,95.58" transform="translate(0 0)"/><path class="cls-25" d="M8.64,187.8c54.51-89.9,167.32,95.32,260,97.65,32,.8,61.17-3.78,87.35-33.26,36.49-41.07,117.64-75,208.34-134.85C721.41,13.65,890.43,2.81,855.3,80.73c-58.22,128,187.42,222.77,251.62,95.73" transform="translate(0 0)"/><path class="cls-25" d="M8.6,188.31C63.28,98,176.25,284.08,269,285.5c32,.49,61.17-4,87.43-33.09C393,211.87,474.11,178.84,565,118.28,722.09,13.51,891,3.41,856.25,80.48c-57.7,127,187.14,222.32,251,95.88" transform="translate(0 0)"/><path class="cls-26" d="M8.56,188.82c54.85-90.67,168,96.21,260.76,96.72,32.05.18,61.18-4.2,87.51-32.91,36.68-40,117.77-72.16,208.73-133.41C722.77,13.37,891.48,4,857.19,80.23c-57.16,125.87,186.87,221.87,250.47,96" transform="translate(0 0)"/><path class="cls-27" d="M8.52,189.33c55-91.06,168.32,96.65,261.13,96.26,32.08-.13,61.2-4.41,87.59-32.74C394,213.36,475.09,182.09,566.18,120.16,723.45,13.23,892,4.61,858.14,80,801.5,204.77,1044.73,301.41,1108,176.16" transform="translate(0 0)"/><path class="cls-27" d="M8.49,189.84c55.17-91.45,168.64,97.09,261.5,95.8,32.1-.45,61.22-4.63,87.67-32.57,36.88-39,117.91-69.35,209.13-132C724.13,13.09,892.53,5.21,859.08,79.73c-56.1,123.71,186.32,221,249.32,96.32" transform="translate(0 0)"/><path class="cls-28" d="M8.45,190.35c55.34-91.84,169,97.53,261.87,95.33,32.13-.75,61.24-4.83,87.76-32.4,37-38.42,118-67.93,209.33-131.24C724.81,13,893.2,5.88,860,79.49,804.7,202.22,1046.07,300,1108.77,176" transform="translate(0 0)"/><path class="cls-29" d="M8.41,190.86c55.51-92.22,169.31,98,262.25,94.87,32.14-1.07,61.25-5.05,87.84-32.23C395.57,215.6,476.54,187,568,123,725.49,12.81,893.73,6.49,861,79.24c-54.78,121.65,185.77,220.08,248.17,96.61" transform="translate(0 0)"/><path class="cls-30" d="M8.37,191.37C64.05,98.76,178,289.78,271,285.78c32.16-1.39,61.26-5.26,87.92-32.06,37.17-37.38,118.11-65.11,209.72-129.8C726.18,12.67,894.26,7.09,861.92,79c-54.25,120.57,185.49,219.64,247.59,96.76" transform="translate(0 0)"/><path class="cls-30" d="M8.33,191.88c55.85-93,170,98.85,263,93.95,32.19-1.7,61.28-5.48,88-31.89,37.28-36.85,118.18-63.7,209.92-129.08C726.86,12.54,894.79,7.7,862.86,78.74c-53.7,119.49,185.22,219.19,247,96.91" transform="translate(0 0)"/><path class="cls-31" d="M8.29,192.39c56-93.39,170.31,99.29,263.38,93.48,32.21-2,61.3-5.68,88.08-31.71C397.13,217.83,478,191.87,569.87,125.8,727.54,12.4,895.32,8.3,863.8,78.49c-53.16,118.41,185,218.74,246.45,97.05" transform="translate(0 0)"/><path class="cls-32" d="M8.26,192.9c56.18-93.78,170.64,99.73,263.74,93,32.24-2.32,61.32-5.9,88.17-31.55,37.48-35.8,118.32-60.87,210.31-127.63C728.22,12.27,895.84,8.91,864.75,78.24c-52.62,117.33,184.67,218.3,245.87,97.2" transform="translate(0 0)"/><path class="cls-33" d="M8.22,193.42c56.35-94.18,171,100.16,264.12,92.55,32.26-2.64,61.33-6.12,88.25-31.38C398.17,219.32,479,195.13,571.1,127.68,728.91,12.13,896.37,9.51,865.69,78c-52.08,116.25,184.4,217.85,245.3,97.35" transform="translate(0 0)"/><path class="cls-34" d="M8.18,193.93C64.7,99.37,179.48,294.53,272.68,286,305,283.07,334,279.69,361,254.81c37.69-34.75,118.46-58.05,210.71-126.19C729.59,12,896.9,10.12,866.64,77.74c-51.54,115.17,184.12,217.41,244.72,97.5" transform="translate(0 0)"/><path class="cls-35" d="M8.14,194.44c56.69-94.95,171.64,101,264.87,91.62,32.3-3.26,61.37-6.54,88.41-31C399.21,220.8,480,198.4,572.33,129.56,730.27,11.87,897.43,10.72,867.58,77.49c-51,114.09,183.85,217,244.15,97.64" transform="translate(0 0)"/><path class="cls-35" d="M8.1,195c56.86-95.34,172,101.48,265.25,91.16,32.32-3.58,61.39-6.76,88.49-30.86C399.73,221.54,480.43,200,572.94,130.5,731,11.74,898,11.33,868.53,77.25c-50.46,113,183.57,216.51,243.57,97.78" transform="translate(0 0)"/><path class="cls-36" d="M8.06,195.46c57-95.73,172.31,101.92,265.62,90.7,32.35-3.89,61.42-7,88.58-30.7,38-33.18,118.66-53.8,211.3-124C731.64,11.6,898.49,11.93,869.47,77c-49.91,111.93,183.3,216.06,243,97.93" transform="translate(0 0)"/><path class="cls-37" d="M8,196C65.22,99.85,180.66,298.32,274,286.2c32.37-4.2,61.44-7.18,88.66-30.52,38.11-32.66,118.73-52.39,211.49-123.3C732.33,11.47,899,12.53,870.42,76.75c-49.37,110.85,183,215.61,242.42,98.08" transform="translate(0 0)"/><path class="cls-37" d="M8,196.48C65.35,100,181,299.27,274.36,286.25c32.39-4.52,61.45-7.4,88.73-30.35,38.22-32.15,118.81-51,211.7-122.58C733,11.34,899.55,13.14,871.36,76.5c-48.83,109.77,182.75,215.17,241.85,98.23" transform="translate(0 0)"/><path class="cls-38" d="M8,197c57.53-96.89,173.3,103.23,266.74,89.31,32.42-4.83,61.48-7.62,88.82-30.18,38.33-31.63,118.87-49.56,211.89-121.86,158.3-123,324.68-120.52,296.91-58C824,184.94,1054.78,291,1113.58,174.62" transform="translate(0 0)"/><path class="cls-39" d="M7.91,197.5C65.61,100.22,181.55,301.17,275,286.34c32.44-5.14,61.5-7.83,88.9-30C402.37,225.23,482.87,208.2,576,135.2,734.39,11.09,900.61,14.35,873.25,76c-47.74,107.61,182.2,214.28,240.7,98.52" transform="translate(0 0)"/><path class="cls-39" d="M7.87,198c57.86-97.67,174,104.1,267.49,88.38,32.47-5.46,61.53-8.05,89-29.84,38.55-30.59,119-46.72,212.28-120.41C735.07,11,901.14,15,874.2,75.75,827,182.28,1056.12,289.58,1114.32,174.42" transform="translate(0 0)"/><path class="cls-40" d="M7.83,198.52c58-98.06,174.31,104.54,267.87,87.92,32.49-5.77,61.55-8.27,89.07-29.67,38.66-30.07,119.08-45.3,212.47-119.69C735.76,10.83,901.66,15.56,875.14,75.5,828.48,181,1056.79,288.89,1114.69,174.32" transform="translate(0 0)"/><path class="cls-41" d="M7.8,199C66,100.58,182.44,304,276,286.49c32.52-6.09,61.59-8.49,89.15-29.5C404,227.44,484.34,213.1,577.86,138,736.45,10.71,902.19,16.16,876.09,75.25c-46.12,104.38,181.37,212.94,239,99" transform="translate(0 0)"/><path class="cls-42" d="M7.76,199.54c58.36-98.83,175,105.41,268.61,87,32.53-6.4,61.61-8.7,89.23-29.32,38.9-29,119.23-42.47,212.87-118.25C737.13,10.58,902.72,16.77,877,75c-45.57,103.3,181.1,212.49,238.4,99.11" transform="translate(0 0)"/><path class="cls-42" d="M7.72,200.05c58.53-99.22,175.31,105.85,269,86.53,32.55-6.71,61.63-8.92,89.31-29.15,39-28.52,119.3-41.05,213.07-117.53C737.82,10.46,903.25,17.37,878,74.76,833,177,1058.8,286.8,1115.8,174" transform="translate(0 0)"/><path class="cls-43" d="M7.68,200.56C66.38,101,183.32,306.85,277,286.63c32.58-7,61.67-9.14,89.4-29,39.13-28,119.36-39.64,213.26-116.81C738.51,10.33,903.78,18,878.92,74.51c-44.48,101.13,180.56,211.59,237.26,99.4" transform="translate(0 0)"/><path class="cls-44" d="M7.64,201.07c58.87-100,176,106.72,269.74,85.61,32.6-7.35,61.7-9.36,89.48-28.82,39.25-27.49,119.43-38.21,213.46-116.08,158.88-131.57,324-123.2,299.54-67.52-43.93,100.05,180.29,211.15,236.69,99.55" transform="translate(0 0)"/><path class="cls-45" d="M7.6,201.59c59-100.4,176.32,107.15,270.11,85.13,32.63-7.66,61.73-9.57,89.56-28.64,39.38-27,119.51-36.79,213.66-115.36C739.89,10.08,904.84,19.19,880.81,74c-43.39,99,180,210.7,236.11,99.69" transform="translate(0 0)"/><path class="cls-46" d="M7.57,202.1c59.2-100.79,176.64,107.58,270.48,84.67,32.65-8,61.76-9.79,89.64-28.47,39.5-26.46,119.58-35.37,213.86-114.64,159-133.7,323.82-123.87,300.2-69.9-42.84,97.9,179.74,210.26,235.54,99.84" transform="translate(0 0)"/><path class="cls-47" d="M7.53,202.61c59.37-101.17,177,108,270.86,84.21,32.67-8.29,61.79-10,89.72-28.3,39.62-25.95,119.65-34,214-113.92C741.27,9.84,905.9,20.4,882.7,73.51c-42.3,96.82,179.46,209.81,235,100" transform="translate(0 0)"/><path class="cls-47" d="M7.49,203.12C67,101.56,184.8,311.57,278.72,286.86c32.7-8.6,61.83-10.22,89.81-28.12,39.74-25.43,119.72-32.54,214.25-113.2C742,9.72,906.43,21,883.64,73.26,841.89,169,1062.83,282.62,1118,173.4" transform="translate(0 0)"/><path class="cls-48" d="M7.45,203.63C67.16,101.68,185.1,312.51,279.06,286.91c32.72-8.92,61.86-10.44,89.88-28,39.88-24.91,119.8-31.11,214.45-112.47C742.65,9.6,907,21.61,884.59,73,843.38,167.68,1063.5,281.93,1118.4,173.3" transform="translate(0 0)"/><path class="cls-49" d="M7.41,204.14c59.88-102.34,178,109.32,272,82.82,32.75-9.23,61.9-10.66,90-27.79,40-24.4,119.87-29.69,214.65-111.75C743.34,9.48,907.5,22.21,885.53,72.76c-40.66,93.59,178.64,208.47,233.24,100.43" transform="translate(0 0)"/><path class="cls-49" d="M7.38,204.65C67.42,101.92,185.69,314.4,279.73,287c32.77-9.55,61.93-10.89,90-27.62,40.13-23.89,120-28.27,214.84-111C744,9.36,908,22.82,886.48,72.52c-40.12,92.51,178.36,208,232.66,100.57" transform="translate(0 0)"/><path class="cls-50" d="M7.34,205.16C67.55,102.05,186,315.35,280.07,287.05c32.79-9.86,62-11.1,90.13-27.44,40.26-23.37,120-26.85,215-110.31C744.72,9.24,908.56,23.42,887.42,72.27,847.86,163.7,1065.51,279.84,1119.51,173" transform="translate(0 0)"/><path class="cls-51" d="M7.3,205.67c60.37-103.5,179,110.62,273.1,81.43,32.81-10.18,62-11.32,90.22-27.27C411,237,490.71,234.4,585.85,150.24,745.41,9.12,909.09,24,888.37,72c-39,90.35,177.81,207.13,231.51,100.87" transform="translate(0 0)"/><path class="cls-52" d="M7.26,206.18c60.54-103.89,179.32,111.05,273.48,81,32.83-10.5,62.05-11.54,90.29-27.11,40.54-22.34,120.17-24,215.44-108.86C746.1,9,909.62,24.63,889.31,71.77c-38.46,89.28,177.54,206.68,230.94,101" transform="translate(0 0)"/><path class="cls-53" d="M7.22,206.69c60.71-104.28,179.66,111.48,273.85,80.5,32.86-10.8,62.1-11.74,90.38-26.93,40.67-21.83,120.24-22.58,215.63-108.14C746.79,8.88,910.15,25.24,890.26,71.52c-37.92,88.2,177.26,206.23,230.36,101.16" transform="translate(0 0)"/><path class="cls-54" d="M7.18,207.2c60.88-104.67,180,111.92,274.23,80,32.88-11.12,62.13-12,90.46-26.76,40.81-21.31,120.31-21.16,215.83-107.42C747.49,8.77,910.68,25.84,891.2,71.27c-37.36,87.13,177,205.79,229.79,101.31" transform="translate(0 0)"/><path class="cls-55" d="M7.15,207.71c61-105.06,180.32,112.35,274.59,79.58,32.91-11.44,62.18-12.18,90.55-26.59,40.94-20.8,120.38-19.74,216-106.7C748.18,8.65,911.21,26.45,892.15,71c-36.82,86.05,176.71,205.34,229.21,101.46" transform="translate(0 0)"/><path class="cls-55" d="M7.11,208.22c61.21-105.44,180.65,112.78,275,79.12,32.93-11.76,62.22-12.4,90.63-26.42,41.08-20.29,120.46-18.32,216.22-106C748.87,8.53,911.75,27.05,893.09,70.77c-36.26,85,176.44,204.9,228.64,101.61" transform="translate(0 0)"/><path class="cls-56" d="M7.07,208.73c61.38-105.83,181,113.21,275.35,78.65,32.95-12.07,62.26-12.61,90.7-26.24,41.23-19.77,120.54-16.9,216.42-105.26C749.57,8.42,912.28,27.66,894,70.52,858.33,154.42,1070.2,275,1122.1,172.27" transform="translate(0 0)"/><path class="cls-57" d="M7,209.25C68.58,103,188.35,322.88,282.75,287.43c33-12.39,62.32-12.83,90.79-26.08,41.37-19.25,120.61-15.46,216.62-104.53C750.26,8.3,912.81,28.26,895,70.27c-35.15,82.83,175.89,204,227.49,101.9" transform="translate(0 0)"/><path class="cls-58" d="M7,209.76c61.72-106.62,181.66,114.07,276.1,77.72,33-12.7,62.36-13,90.87-25.91,41.52-18.73,120.69-14,216.81-103.81C751,8.19,913.34,28.87,895.92,70c-34.59,81.74,175.62,203.55,226.92,102" transform="translate(0 0)"/><path class="cls-59" d="M7,210.27c61.89-107,182,114.5,276.47,77.25,33-13,62.41-13.25,91-25.73,41.66-18.22,120.76-12.62,217-103.09C751.65,8.07,913.88,29.47,896.87,69.78c-34,80.67,175.34,203.1,226.34,102.19" transform="translate(0 0)"/><path class="cls-60" d="M6.92,210.78C69,103.39,189.24,325.71,283.76,287.57c33.05-13.33,62.46-13.47,91-25.56,41.81-17.7,120.83-11.2,217.2-102.37C752.35,8,914.41,30.08,897.81,69.53c-33.48,79.6,175.07,202.66,225.77,102.34" transform="translate(0 0)"/><path class="cls-61" d="M6.88,211.29C69.1,103.51,189.54,326.65,284.1,287.62c33.06-13.65,62.51-13.68,91.11-25.39,42-17.18,120.92-9.77,217.41-101.65C753,7.84,914.94,30.69,898.76,69.28,865.83,147.8,1073.55,271.49,1124,171.76" transform="translate(0 0)"/><path class="cls-61" d="M6.84,211.8c62.39-108.17,183,115.79,277.59,75.87,33.09-14,62.56-13.9,91.2-25.23,42.12-16.66,121-8.34,217.6-100.92C753.74,7.73,915.48,31.29,899.7,69c-32.37,77.45,174.52,201.77,224.62,102.63" transform="translate(0 0)"/><path class="cls-62" d="M6.8,212.31c62.56-108.56,183.33,116.22,278,75.4,33.11-14.28,62.61-14.1,91.28-25,42.27-16.14,121.06-6.92,217.8-100.2C754.44,7.62,916,31.9,900.65,68.78c-31.81,76.38,174.24,201.32,224,102.78" transform="translate(0 0)"/><path class="cls-63" d="M6.76,212.82C69.49,103.87,190.42,329.47,285.1,287.76c33.14-14.6,62.67-14.31,91.37-24.88,42.42-15.62,121.14-5.49,218-99.48C755.13,7.5,916.54,32.5,901.59,68.53c-31.24,75.31,174,200.87,223.47,102.93" transform="translate(0 0)"/><path class="cls-64" d="M6.72,213.33c62.89-109.34,184,117.08,278.72,74.48,33.16-14.92,62.72-14.53,91.45-24.71C419.46,248,498.1,259,595.08,164.34c160.75-157,322-131.23,307.46-96.06-30.69,74.23,173.69,200.43,222.89,103.08" transform="translate(0 0)"/><path class="cls-65" d="M6.69,213.84c63.05-109.72,184.32,117.51,279.09,74,33.18-15.23,62.77-14.73,91.52-24.53,42.74-14.58,121.3-2.65,218.39-98C756.53,7.28,917.61,33.71,903.48,68c-30.12,73.16,173.42,200,222.32,103.22" transform="translate(0 0)"/><path class="cls-66" d="M6.65,214.35C69.87,104.24,191.31,332.29,286.11,287.9,319.32,272.35,349,273,377.72,263.53c42.9-14,121.37-1.21,218.59-97.3C757.23,7.17,918.15,34.32,904.43,67.79c-29.56,72.08,173.14,199.53,221.74,103.36" transform="translate(0 0)"/><path class="cls-67" d="M6.61,214.86C70,104.36,191.6,333.23,286.45,288c33.23-15.86,62.89-15.15,91.69-24.2,43.05-13.52,121.45.21,218.78-96.58C757.93,7.05,918.68,34.92,905.37,67.54c-29,71,172.87,199.08,221.17,103.51" transform="translate(0 0)"/><path class="cls-67" d="M6.57,215.37C70.13,104.48,191.9,334.17,286.78,288c33.26-16.18,63-15.36,91.78-24,43.21-13,121.52,1.64,219-95.86C758.62,6.94,919.22,35.53,906.32,67.29c-28.42,70,172.59,198.64,220.59,103.66" transform="translate(0 0)"/><path class="cls-68" d="M6.53,215.88C70.26,104.6,192.19,335.11,287.12,288c33.27-16.49,63-15.56,91.85-23.85,43.38-12.48,121.61,3.06,219.18-95.14C759.32,6.83,919.75,36.14,907.26,67c-27.84,68.88,172.32,198.19,220,103.81" transform="translate(0 0)"/><path class="cls-69" d="M6.49,216.39c63.9-111.67,186,119.66,281,71.7,33.29-16.81,63.06-15.76,91.93-23.68,43.55-12,121.68,4.49,219.38-94.42C760,6.72,920.29,36.74,908.2,66.79c-27.26,67.81,172,197.74,219.45,104" transform="translate(0 0)"/><path class="cls-69" d="M6.46,216.9c64.06-112,186.32,120.08,281.33,71.24,33.32-17.13,63.13-16,92-23.51,43.71-11.42,121.76,5.91,219.57-93.7C760.72,6.61,920.82,37.35,909.15,66.54c-26.69,66.74,171.77,197.3,218.87,104.1" transform="translate(0 0)"/><path class="cls-70" d="M6.42,217.42C70.65,105,193.07,337.92,288.13,288.18c33.34-17.44,63.19-16.16,92.1-23.34,43.87-10.88,121.84,7.35,219.77-93C761.42,6.5,921.36,38,910.09,66.29,884,132,1081.59,263.14,1128.39,170.54" transform="translate(0 0)"/><path class="cls-71" d="M6.38,217.93c64.4-112.84,187,120.93,282.08,70.3,33.37-17.76,63.26-16.37,92.19-23.17,44-10.35,121.91,8.77,220-92.25C762.12,6.39,921.9,38.56,911,66c-25.53,64.61,171.22,196.41,217.72,104.4" transform="translate(0 0)"/><path class="cls-71" d="M6.34,218.44C70.91,105.21,193.66,339.8,288.8,288.28c33.39-18.08,63.32-16.57,92.26-23,44.21-9.82,122,10.2,220.17-91.53C762.82,6.28,922.44,39.16,912,65.79c-24.94,63.55,171,196,217.15,104.54" transform="translate(0 0)"/><path class="cls-72" d="M6.3,219C71,105.33,194,340.74,289.13,288.33c33.42-18.4,63.39-16.77,92.35-22.83,44.38-9.28,122.08,11.62,220.36-90.81C763.52,6.17,923,39.77,912.93,65.55,888.58,128,1083.6,261.06,1129.5,170.23" transform="translate(0 0)"/><path class="cls-73" d="M6.26,219.46c64.91-114,188,122.22,283.21,68.91,33.43-18.71,63.45-17,92.43-22.65,44.55-8.75,122.15,13,220.56-90.09C764.23,6.07,923.51,40.38,913.87,65.3c-23.76,61.41,170.4,195.06,216,104.83" transform="translate(0 0)"/><path class="cls-74" d="M6.23,220C71.3,105.58,194.54,342.61,289.81,288.42c33.45-19,63.51-17.16,92.51-22.49,44.72-8.2,122.23,14.49,220.75-89.36C764.93,6,924.05,41,914.82,65.05c-23.16,60.35,170.12,194.61,215.42,105" transform="translate(0 0)"/><path class="cls-74" d="M6.19,220.48c65.24-114.78,188.65,123.07,284,68,33.48-19.35,63.58-17.36,92.6-22.32,44.89-7.66,122.31,15.91,221-88.64C765.63,5.85,924.59,41.59,915.76,64.8,893.21,124.1,1085.61,259,1130.61,169.93" transform="translate(0 0)"/><path class="cls-75" d="M6.15,221c65.4-115.17,189,123.5,284.33,67.52,33.5-19.66,63.64-17.55,92.67-22.14,45.07-7.12,122.4,17.34,221.15-87.92C766.33,5.74,925.13,42.19,916.71,64.55c-22,58.24,169.57,193.72,214.27,105.27" transform="translate(0 0)"/><path class="cls-76" d="M6.11,221.5c65.57-115.56,189.31,123.93,284.7,67.06,33.53-20,63.71-17.75,92.76-22C428.81,260,506,285.36,604.92,179.39,767,5.63,925.67,42.8,917.65,64.3c-21.33,57.18,169.3,193.28,213.7,105.42" transform="translate(0 0)"/><path class="cls-77" d="M6.07,222c65.74-115.95,189.65,124.35,285.08,66.6,33.55-20.3,63.77-17.94,92.84-21.8,45.41-6,122.55,20.19,221.54-86.48C767.74,5.53,926.22,43.4,918.6,64.05c-20.71,56.13,169,192.83,213.12,105.57" transform="translate(0 0)"/><path class="cls-78" d="M6,222.52C71.94,106.19,196,347.3,291.49,288.66,325.05,268,355.33,270.52,384.41,267,430,261.54,507,288.65,606.15,181.27,768.44,5.42,926.76,44,919.54,63.8c-20.08,55.08,168.75,192.39,212.55,105.72" transform="translate(0 0)"/><path class="cls-79" d="M6,223C72.07,106.31,196.3,348.24,291.82,288.7c33.59-20.93,63.91-18.32,93-21.46,45.76-4.94,122.71,23.06,221.93-85C769.15,5.31,927.3,44.61,920.49,63.55c-19.44,54,168.47,191.94,212,105.87" transform="translate(0 0)"/><path class="cls-80" d="M6,223.54c66.24-117.11,190.63,125.64,286.2,65.21,33.61-21.25,64-18.51,93.08-21.29,45.94-4.39,122.8,24.48,222.14-84.31C769.85,5.2,927.85,45.21,921.43,63.3c-18.79,53,168.2,191.49,211.4,106" transform="translate(0 0)"/><path class="cls-80" d="M5.92,224.05c66.41-117.5,191,126.06,286.57,64.75,33.64-21.57,64.09-24,93.17-21.12,46,4.54,122.88,25.91,222.33-83.59,162.57-179,320.4-138.27,314.39-121C904.25,115,1090.3,254.1,1133.2,169.21" transform="translate(0 0)"/><path class="cls-81" d="M5.88,224.56c66.58-117.89,191.3,126.49,287,64.28,33.66-21.88,64.22-24.17,93.25-20.94C432.2,273,509,295.24,608.61,185,771.26,5,928.94,46.42,923.32,62.81,905.87,113.7,1091,253.4,1133.58,169.11" transform="translate(0 0)"/><path class="cls-82" d="M5.84,225.07C72.59,106.8,197.47,352,293.17,288.89c33.67-22.2,64.34-24.36,93.33-20.78,46.19,5.71,123,28.78,222.72-82.14C772,4.89,929.49,47,924.26,62.56,907.51,112.42,1091.65,252.71,1134,169" transform="translate(0 0)"/><path class="cls-82" d="M5.8,225.59c66.92-118.67,192,127.33,287.7,63.35,33.7-22.52,64.48-24.54,93.41-20.61,46.27,6.29,123.13,30.21,222.93-81.42C772.67,4.78,930,47.62,925.21,62.31,909.16,111.13,1092.32,252,1134.32,168.9" transform="translate(0 0)"/><path class="cls-83" d="M5.77,226.1C72.85,107,198.06,353.86,293.84,289c33.72-22.84,64.61-24.72,93.49-20.44,46.34,6.87,123.21,31.63,223.12-80.7C773.38,4.67,930.59,48.22,926.15,62.06,910.84,109.86,1093,251.32,1134.69,168.8" transform="translate(0 0)"/><path class="cls-84" d="M5.73,226.61C73,107.16,198.35,354.8,294.17,289c33.75-23.15,64.75-24.89,93.58-20.26,46.41,7.44,123.29,33.06,223.32-80,163-184.22,320.07-140,316-127-14.55,46.78,166.56,188.81,208,106.89" transform="translate(0 0)"/><path class="cls-85" d="M5.69,227.12c67.42-119.84,193,128.61,288.82,62C328.28,265.61,359.38,264,388.17,269c46.48,8,123.37,34.49,223.51-79.26C774.79,4.46,931.69,49.41,928,61.56c-13.75,45.76,166.29,188.36,207.39,107" transform="translate(0 0)"/><path class="cls-86" d="M5.65,227.63c67.59-120.23,193.28,129,289.2,61.5,33.78-23.79,65-25.23,93.74-19.92C435.14,277.8,512,305.13,612.3,190.67,775.5,4.36,932.25,50,929,61.31c-12.91,44.76,166,187.92,206.81,107.19" transform="translate(0 0)"/><path class="cls-87" d="M5.61,228.14c67.76-120.61,193.61,129.46,289.57,61,33.81-24.12,65.13-25.4,93.82-19.76,46.64,9.17,123.54,37.36,223.91-77.81,163.29-187.36,319.9-141,317-130.55-12,43.76,165.74,187.47,206.24,107.33" transform="translate(0 0)"/><path class="cls-87" d="M5.58,228.65c67.91-121,193.93,129.89,289.94,60.57,33.83-24.43,65.26-25.55,93.9-19.58,46.71,9.74,123.62,38.79,224.11-77.09C776.91,4.15,933.37,51.18,930.88,60.82c-11.06,42.76,165.46,187,205.66,107.47" transform="translate(0 0)"/><path class="cls-88" d="M5.54,229.16c68.08-121.39,194.27,130.32,290.31,60.11,33.86-24.75,65.39-25.71,94-19.41,46.78,10.3,123.7,40.21,224.3-76.37C777.62,4,933.93,51.76,931.82,60.57c-10,41.78,165.19,186.57,205.09,107.62" transform="translate(0 0)"/><path class="cls-89" d="M5.5,229.67c68.25-121.78,194.6,130.74,290.69,59.65,33.87-25.07,65.51-25.87,94.07-19.24C437.12,281,514,311.72,614.76,194.43,778.33,3.94,934.5,52.34,932.77,60.32c-8.87,40.81,164.91,186.13,204.51,107.77" transform="translate(0 0)"/><path class="cls-90" d="M5.46,230.18C73.88,108,200.39,361.35,296.52,289.36c33.9-25.38,65.64-26,94.16-19.06,46.93,11.43,123.86,43.07,224.69-74.93C779,3.83,935.07,52.9,933.71,60.07,926.15,99.92,1098.35,245.75,1137.65,168" transform="translate(0 0)"/><path class="cls-91" d="M5.42,230.69C74,108.14,200.68,362.29,296.86,289.41c33.92-25.7,65.76-26.16,94.23-18.9,47,12,124,44.51,224.9-74.2C779.74,3.73,934.35,53.37,934.66,59.82,920.93,96.71,1099,245.05,1138,167.88" transform="translate(0 0)"/><path class="cls-92" d="M5.38,231.2C74.14,108.26,201,363.22,297.2,289.46c33.94-26,65.87-26.31,94.31-18.73,47.09,12.56,124,45.94,225.09-73.48C780.45,3.63,934.87,54,935.6,59.57c-13.19,35.81,164.09,184.79,202.79,108.21" transform="translate(0 0)"/><path class="cls-93" d="M5.35,231.71c68.92-123.33,195.91,132.45,292.18,57.8,34-26.34,65.06-21.38,94.4-18.56,48.74,4.68,124.12,47.37,225.29-72.76C781.16,3.52,935.4,54.58,936.55,59.32c-12.67,34.73,163.81,184.34,202.21,108.36" transform="translate(0 0)"/><path class="cls-93" d="M5.31,232.22C74.4,108.5,201.55,365.09,297.87,289.55c34-26.65,65.12-21.54,94.48-18.38,48.91,5.26,124.2,48.8,225.48-72C781.87,3.42,935.92,55.18,937.49,59.07,925.36,92.71,1101,243,1139.13,167.58" transform="translate(0 0)"/><path class="cls-94" d="M5.27,232.73C74.53,108.62,201.84,366,298.2,289.6c34-27,65.19-21.71,94.57-18.21,49.08,5.84,124.28,50.23,225.68-71.32,164.13-196.75,318-144.29,320-141.25-11.6,32.56,163.27,183.45,201.07,108.65" transform="translate(0 0)"/><path class="cls-95" d="M5.23,233.25C74.66,108.74,202.13,367,298.54,289.65c34-27.29,65.25-21.88,94.64-18C442.44,278,517.55,323.27,619.06,201,783.29,3.21,937,56.38,939.38,58.57c-11.08,31.47,163,183,200.49,108.8" transform="translate(0 0)"/><path class="cls-96" d="M5.19,233.76c69.6-124.89,197.23,134.14,293.69,55.93,34-27.6,65.31-22,94.72-17.87,49.42,7,124.46,53.1,226.08-69.87C784,3.11,937.49,57,940.32,58.33,929.78,88.71,1103,240.88,1140.24,167.27" transform="translate(0 0)"/><path class="cls-97" d="M5.15,234.27C74.92,109,202.71,368.84,299.21,289.74c34.07-27.92,65.38-22.21,94.81-17.7,49.59,7.6,124.54,54.53,226.27-69.15C784.71,3,938,57.59,941.27,58.08c-10,29.29,162.44,182.1,199.34,109.09" transform="translate(0 0)"/><path class="cls-98" d="M5.12,234.78c69.93-125.67,197.88,135,294.43,55,34.09-28.24,65.44-22.38,94.89-17.53,49.76,8.19,124.62,56,226.47-68.43C785.42,2.9,938.53,58.19,942.21,57.83,932.73,86,1104.38,239.49,1141,167.07" transform="translate(0 0)"/><path class="cls-99" d="M5.08,235.29c70.1-126.06,198.21,135.42,294.8,54.55,34.11-28.56,65.5-22.55,95-17.36,49.92,8.78,124.71,57.39,226.66-67.71,164.61-202,317.54-146,321.64-147.19-9,27.13,161.89,181.21,198.19,109.38" transform="translate(0 0)"/><path class="cls-99" d="M5,235.8c70.27-126.45,198.54,135.84,295.18,54.08,34.13-28.87,65.56-22.71,95-17.18,50.09,9.37,124.8,58.82,226.87-67,164.7-203,317.44-146.32,322-148.38-8.42,26,161.62,180.77,197.62,109.53" transform="translate(0 0)"/><path class="cls-100" d="M5,236.31c70.43-126.84,198.87,136.27,295.56,53.62,34.15-29.2,65.62-22.87,95.13-17,50.26,10,124.88,60.26,227.06-66.26C787.56,2.59,940.1,60,945.05,57.08c-7.9,25,161.34,180.32,197,109.68" transform="translate(0 0)"/><path class="cls-101" d="M5,236.82C75.56,109.6,204.16,373.51,300.89,290c34.17-29.52,65.69-23,95.22-16.85,50.42,10.57,125,61.69,227.26-65.54C788.27,2.49,940.62,60.6,946,56.83c-7.36,23.87,161.07,179.87,196.47,109.83" transform="translate(0 0)"/><path class="cls-101" d="M4.92,237.33C75.69,109.72,204.45,374.45,301.23,290c34.19-29.83,65.74-23.19,95.3-16.67,50.58,11.16,125.05,63.12,227.45-64.82C789,2.39,941.15,61.2,946.94,56.58c-6.84,22.79,160.79,179.43,195.89,110" transform="translate(0 0)"/><path class="cls-102" d="M4.89,237.84c70.93-128,199.85,137.55,296.67,52.23,34.22-30.15,65.81-23.36,95.38-16.5,50.75,11.76,125.14,64.55,227.66-64.1C789.69,2.29,941.67,61.8,947.88,56.33c-6.3,21.71,160.52,179,195.32,110.12" transform="translate(0 0)"/><path class="cls-103" d="M4.85,238.35C76,110,205,376.32,301.9,290.12c34.24-30.47,65.86-23.52,95.46-16.33,50.91,12.36,125.23,66,227.85-63.38C790.4,2.18,942.19,62.4,948.83,56.09c-5.78,20.61,160.24,178.53,194.74,110.26" transform="translate(0 0)"/><path class="cls-103" d="M4.81,238.86c71.27-128.78,200.51,138.4,297.43,51.31,34.25-30.79,65.92-23.68,95.54-16.17,51.07,13,125.31,67.42,228.05-62.65C791.12,2.08,942.72,63,949.77,55.84c-5.25,19.53,160,178.08,194.17,110.41" transform="translate(0 0)"/><path class="cls-104" d="M4.77,239.37c71.44-129.16,200.84,138.82,297.8,50.84,34.28-31.1,66-23.84,95.63-16,51.22,13.56,125.4,68.85,228.24-61.93C791.83,2,943.24,63.61,950.72,55.59,946,74,1110.41,233.23,1144.31,166.15" transform="translate(0 0)"/><path class="cls-105" d="M4.73,239.88C76.34,110.33,205.9,379.13,302.91,290.26c34.3-31.42,66-24,95.71-15.82C450,288.6,524.1,344.72,627.06,213.23c165.48-211.35,316.7-149,324.6-157.89-4.19,17.36,159.42,177.19,193,110.71" transform="translate(0 0)"/><path class="cls-105" d="M4.69,240.39c71.78-129.94,201.5,139.67,298.55,49.92,34.32-31.74,66.09-24.16,95.79-15.65,51.54,14.77,125.58,71.71,228.64-60.49C793.26,1.78,944.28,64.81,952.6,55.09,949,71.37,1111.75,231.83,1145.05,165.94" transform="translate(0 0)"/><path class="cls-106" d="M4.66,240.9C76.6,110.57,206.48,381,303.58,290.35c34.34-32.05,66.15-24.31,95.87-15.47,51.69,15.37,125.66,73.14,228.84-59.77C794,1.68,944.81,65.41,953.55,54.84c-3.13,15.19,158.87,176.3,191.87,111" transform="translate(0 0)"/><path class="cls-107" d="M4.62,241.42c72.11-130.73,202.14,140.51,299.29,49,34.37-32.37,66.21-24.47,96-15.31,51.85,16,125.75,74.58,229-59C794.69,1.57,945.33,66,954.49,54.59c-2.59,14.11,158.6,175.85,191.3,111.15" transform="translate(0 0)"/><path class="cls-108" d="M4.58,241.93c72.28-131.12,202.47,140.94,299.67,48.52,34.38-32.69,66.26-24.64,96-15.14,52,16.59,125.83,76,229.23-58.32C795.4,1.47,945.85,66.62,955.44,54.34c-2.07,13,158.32,175.41,190.72,111.3" transform="translate(0 0)"/><path class="cls-108" d="M4.54,242.44c72.45-131.5,202.8,141.36,300,48.06,34.4-33,66.31-24.8,96.12-15,52.15,17.19,125.92,77.44,229.42-57.6C796.12,1.37,946.38,67.22,956.38,54.09c-1.53,11.94,158.05,175,190.15,111.44" transform="translate(0 0)"/><path class="cls-109" d="M4.5,243c72.62-131.89,203.13,141.79,300.42,47.59,34.43-33.33,66.36-25,96.2-14.79,52.3,17.8,126,78.87,229.63-56.88,166.08-217.6,316.15-151,326.58-165-1,10.85,157.77,174.51,189.57,111.58" transform="translate(0 0)"/><path class="cls-110" d="M4.46,243.46c72.79-132.28,203.46,142.21,300.8,47.13,34.44-33.65,66.41-25.11,96.28-14.62,52.45,18.4,126.1,80.3,229.82-56.16C797.55,1.17,947.42,68.42,958.27,53.6c-.48,9.76,157.5,174.06,189,111.73" transform="translate(0 0)"/><path class="cls-110" d="M4.43,244C77.37,111.3,208.21,386.61,305.59,290.64c34.47-34,66.47-25.26,96.37-14.46,52.6,19,126.19,81.75,230-55.43C798.26,1.07,947.94,69,959.22,53.35c0,8.68,157.22,173.61,188.42,111.88" transform="translate(0 0)"/><path class="cls-111" d="M4.39,244.48C77.5,111.42,208.5,387.55,305.93,290.68c34.49-34.28,66.52-25.41,96.45-14.28,52.74,19.63,126.27,83.18,230.21-54.71C799,1,948.47,69.62,960.16,53.1c.58,7.59,156.95,173.17,187.85,112" transform="translate(0 0)"/><path class="cls-112" d="M4.35,245c73.28-133.44,204.43,143.49,301.92,45.74,34.5-34.6,66.56-25.57,96.53-14.11,52.88,20.24,126.36,84.61,230.41-54C799.69.87,949,70.23,961.11,52.85c1.11,6.51,156.67,172.72,187.27,112.17" transform="translate(0 0)"/><path class="cls-112" d="M4.31,245.5C77.76,111.67,209.07,389.42,306.6,290.78c34.53-34.92,66.62-25.73,96.61-13.94,53,20.85,126.45,86,230.61-53.27C800.41.76,949.51,70.83,962.05,52.6c1.64,5.43,156.4,172.28,186.7,112.32" transform="translate(0 0)"/><path class="cls-113" d="M4.27,246c73.62-134.22,205.09,144.34,302.67,44.82,34.54-35.24,66.66-25.89,96.69-13.77,53.18,21.45,126.54,87.47,230.81-52.55C801.12.66,950,71.43,963,52.35c2.17,4.34,156.12,171.83,186.12,112.47" transform="translate(0 0)"/><path class="cls-114" d="M4.23,246.52c73.79-134.61,205.42,144.77,303,44.35,34.57-35.55,66.71-26,96.78-13.59,53.32,22.06,126.63,88.9,231-51.83C801.84.56,950.56,72,963.94,52.1c2.7,3.26,155.85,171.39,185.55,112.62" transform="translate(0 0)"/><path class="cls-114" d="M4.2,247c74-135,205.74,145.19,303.41,43.89,34.59-35.87,66.76-26.2,96.86-13.43,53.46,22.68,126.72,90.34,231.2-51.1C802.56.46,951.08,72.63,964.89,51.85c3.23,2.17,155.57,170.94,185,112.77" transform="translate(0 0)"/><path class="cls-115" d="M4.16,247.54C78.28,112.15,210.22,393.16,308,291c34.6-36.19,66.8-26.36,96.93-13.26,53.6,23.3,126.81,91.77,231.4-50.38C803.28.36,951.6,73.24,965.83,51.6c3.76,1.09,155.3,170.49,184.4,112.91" transform="translate(0 0)"/><path class="cls-116" d="M4.12,248.05c74.29-135.77,206.39,146,304.16,43,34.63-36.5,66.85-26.5,97-13.08,53.74,23.91,126.9,93.21,231.6-49.66C804,.26,952.13,73.84,966.78,51.36c4.28,0,155,170,183.82,113.05" transform="translate(0 0)"/><path class="cls-117" d="M4.08,248.56C78.54,112.4,210.8,395,308.62,291.06c34.65-36.82,66.89-26.66,97.1-12.91,53.88,24.52,127,94.64,231.79-48.94C804.71.16,952.65,74.44,967.72,51.11,972.54,50,1122.48,220.7,1151,164.31" transform="translate(0 0)"/><path class="cls-118" d="M4,249.07C78.67,112.52,211.09,396,309,291.11c34.67-37.14,66.94-26.82,97.19-12.74,54,25.13,127.07,96.07,232-48.22C805.43.06,953.17,75,968.66,50.86,974,48.69,1123.15,220,1151.35,164.21" transform="translate(0 0)"/><path class="cls-119" d="M4,249.59C78.8,112.64,211.37,396.9,309.29,291.16c34.69-37.47,67-27,97.27-12.58,54.14,25.75,127.16,97.51,232.18-47.49C806.15,0,953.69,75.64,969.61,50.61c5.88-3.26,154.21,168.7,182.11,113.49" transform="translate(0 0)"/><path class="cls-120" d="M4,250.1c75-137.34,207.69,147.73,305.66,41.1,34.7-37.78,67-27.12,97.34-12.4,54.29,26.36,127.26,98.94,232.39-46.77C806.86-.14,954.22,76.25,970.55,50.36,977,46,1124.49,218.62,1152.09,164" transform="translate(0 0)"/><path class="cls-120" d="M3.93,250.61c75.13-137.72,208,148.16,306,40.64C344.69,253.15,377,264,407.39,279,461.81,306,534.74,379.39,640,233,807.58-.24,950.37,73.55,971.5,50.11c5.9-6.54,153.66,167.81,181,113.79" transform="translate(0 0)"/><path class="cls-121" d="M3.89,251.12C79.19,113,212.23,399.71,310.3,291.3c34.75-38.42,67.11-27.44,97.51-12.06,54.55,27.59,127.44,101.81,232.78-45.33C808.3-.34,951.37,74.61,972.44,49.86c6.43-7.54,153.39,167.36,180.39,113.94" transform="translate(0 0)"/><path class="cls-122" d="M3.85,251.63c75.47-138.5,208.67,149,306.78,39.71,34.77-38.73,67.16-27.59,97.6-11.88,54.67,28.2,127.52,103.24,233-44.61C809-.44,952.29,75.56,973.39,49.61c7-8.55,153.11,166.92,179.81,114.09" transform="translate(0 0)"/><path class="cls-123" d="M3.81,252.14c75.63-138.89,209,149.44,307.16,39.25,34.79-39,67.19-27.75,97.68-11.72,54.8,28.83,127.61,104.68,233.17-43.88C809.74-.54,953.14,76.45,974.33,49.36c7.5-9.58,152.84,166.47,179.24,114.23" transform="translate(0 0)"/><path class="cls-123" d="M3.78,252.65C79.57,113.37,213.1,402.51,311.3,291.44c34.81-39.37,67.24-27.9,97.76-11.55C464,309.33,536.77,386,642.43,236.73,810.46-.64,953.93,77.28,975.28,49.12c8-10.62,152.56,166,178.66,114.37" transform="translate(0 0)"/><path class="cls-124" d="M3.74,253.16c76-139.67,209.64,150.29,307.9,38.33,34.83-39.69,67.27-28.06,97.84-11.38,55.07,30.05,127.8,107.54,233.57-42.44C811.18-.74,954.69,78.07,976.22,48.87c8.59-11.66,152.29,165.57,178.09,114.52" transform="translate(0 0)"/><path class="cls-125" d="M3.7,253.67c76.13-140,210,150.71,308.28,37.86,34.85-40,67.31-28.21,97.92-11.2,55.19,30.66,127.89,109,233.76-41.72C811.9-.84,955.42,78.83,977.17,48.62c9.14-12.7,152,165.13,177.51,114.67" transform="translate(0 0)"/><path class="cls-125" d="M3.66,254.18C80,113.74,214,405.32,312.31,291.58c34.87-40.32,67.35-28.37,98-11,55.31,31.28,128,110.41,234-41C812.62-.94,956.12,79.57,978.11,48.37c9.69-13.75,151.74,164.68,176.94,114.82" transform="translate(0 0)"/><path class="cls-126" d="M3.62,254.69c76.47-140.83,210.62,151.56,309,36.94C347.54,251,380,263.1,410.74,280.77c55.44,31.89,128.07,111.84,234.15-40.28C813.34-1,956.79,80.29,979.06,48.12c10.24-14.8,151.46,164.23,176.36,115" transform="translate(0 0)"/><path class="cls-127" d="M3.58,255.2c76.64-141.22,211,152,309.4,36.48,34.91-41,67.43-28.68,98.17-10.7,55.57,32.51,128.17,113.28,234.36-39.55C814.06-1.14,957.45,81,980,47.87,990.79,32,1131.19,211.66,1155.79,163" transform="translate(0 0)"/><path class="cls-128" d="M3.55,255.71c76.8-141.61,211.27,152.41,309.77,36,34.93-41.27,67.46-28.83,98.25-10.52,55.69,33.13,128.26,114.71,234.55-38.83C814.78-1.24,958.1,81.69,981,47.62,992.29,30.71,1131.86,211,1156.16,162.88" transform="translate(0 0)"/><path class="cls-128" d="M3.51,256.22c77-142,211.59,152.84,310.15,35.55,34.95-41.6,67.5-29,98.33-10.35,55.81,33.74,128.34,116.14,234.75-38.11C815.5-1.34,958.73,82.37,981.89,47.37c11.89-18,150.64,162.9,174.64,115.41" transform="translate(0 0)"/><path class="cls-129" d="M3.47,256.73C80.61,114.35,215.39,410,314,291.82c35-41.92,67.54-29.15,98.42-10.18C468.34,316,540.84,399.22,647.35,244.25,816.22-1.44,959.35,83,982.83,47.12c12.45-19,150.37,162.45,174.07,115.55" transform="translate(0 0)"/><path class="cls-130" d="M3.43,257.25c77.31-142.78,212.25,153.68,310.9,34.61,35-42.23,67.57-29.3,98.5-10,56.05,35,128.52,119,235.14-36.67C816.94-1.54,960,83.71,983.78,46.87c13-20.09,150.09,162,173.49,115.7" transform="translate(0 0)"/><path class="cls-131" d="M3.39,257.76C80.87,114.59,216,411.87,314.66,291.91c35-42.55,67.61-29.46,98.58-9.84,56.18,35.59,128.62,120.45,235.34-35.94C817.66-1.64,960.57,84.36,984.72,46.63c13.55-21.16,149.82,161.55,172.92,115.84" transform="translate(0 0)"/><path class="cls-132" d="M3.35,258.27C81,114.71,216.25,412.8,315,292c35-42.87,67.64-29.62,98.66-9.67C470,318.49,542.37,404.17,649.2,247.07,818.38-1.74,961.17,85,985.67,46.38c14.09-22.23,149.54,161.1,172.34,116" transform="translate(0 0)"/><path class="cls-133" d="M3.32,258.78c77.81-143.95,213.21,155,312,33.23,35.05-43.19,67.67-29.77,98.74-9.5,56.41,36.81,128.8,123.32,235.73-34.5C819.1-1.84,961.76,85.67,986.61,46.13c14.64-23.29,149.27,160.66,171.77,116.14" transform="translate(0 0)"/><path class="cls-134" d="M3.28,259.29c78-144.33,213.54,155.38,312.39,32.76,35.07-43.5,67.71-29.92,98.83-9.32C471,320.16,543.39,407.48,650.43,249,819.82-1.94,962.35,86.31,987.56,45.88c15.19-24.36,149,160.21,171.19,116.28" transform="translate(0 0)"/><path class="cls-134" d="M3.24,259.8C81.38,115.08,217.11,415.61,316,292.1c35.09-43.82,67.74-30.08,98.9-9.15,56.65,38,129,126.18,236.13-33.06C820.55-2,962.93,87,988.5,45.63c15.74-25.43,148.72,159.77,170.62,116.43" transform="translate(0 0)"/><path class="cls-135" d="M3.2,260.31C81.51,115.2,217.39,416.55,316.34,292.15c35.11-44.14,67.78-30.24,99-9,56.76,38.66,129.08,127.62,236.33-32.33C821.27-2.14,963.51,87.59,989.45,45.38c16.28-26.5,148.44,159.32,170,116.58" transform="translate(0 0)"/><path class="cls-136" d="M3.16,260.82c78.48-145.5,214.52,156.66,313.52,31.37,35.13-44.45,67.81-30.39,99.07-8.81,56.88,39.27,129.18,129.05,236.52-31.61C822-2.24,964.08,88.23,990.39,45.13c16.83-27.57,148.17,158.87,169.47,116.73" transform="translate(0 0)"/><path class="cls-137" d="M3.12,261.33C81.77,115.44,218,418.42,317,292.24c35.15-44.77,67.84-30.55,99.16-8.64,57,39.88,129.27,130.49,236.72-30.89C822.71-2.34,964.65,88.86,991.34,44.88c17.38-28.64,147.89,158.43,168.89,116.88" transform="translate(0 0)"/><path class="cls-138" d="M3.09,261.84C81.9,115.56,218.25,419.35,317.35,292.29c35.17-45.09,67.87-30.71,99.24-8.47C473.69,324.31,546,415.74,653.5,253.65,823.44-2.44,965.22,89.49,992.28,44.63c17.93-29.71,147.62,158,168.32,117" transform="translate(0 0)"/><path class="cls-138" d="M3.05,262.35c79-146.66,215.49,157.94,314.64,30,35.19-45.41,67.9-30.87,99.31-8.3,57.22,41.1,129.46,133.35,237.12-29.45C824.16-2.54,965.78,90.12,993.23,44.39,1011.7,13.6,1140.57,201.92,1161,161.55" transform="translate(0 0)"/><path class="cls-139" d="M3,262.86c79.15-147,215.81,158.36,315,29.52,35.21-45.72,67.94-31,99.4-8.12C474.75,326,547,419,654.73,255.53,824.88-2.64,966.35,90.75,994.17,44.14c19-31.86,147.07,157.08,167.17,117.31" transform="translate(0 0)"/><path class="cls-140" d="M3,263.37c79.32-147.44,216.14,158.79,315.39,29.06,35.23-46.05,68-31.18,99.48-8,57.44,42.34,129.64,136.23,237.51-28C825.6-2.74,966.91,91.37,995.12,43.89c19.56-32.93,146.79,156.64,166.59,117.46" transform="translate(0 0)"/><path class="cls-141" d="M2.93,263.88c79.49-147.83,216.46,159.22,315.76,28.6,35.25-46.37,68-31.34,99.57-7.79C475.81,327.64,548,422.35,656,257.42,826.33-2.84,967.46,92,996.06,43.64c20.11-34,146.52,156.19,166,117.61" transform="translate(0 0)"/><path class="cls-141" d="M2.89,264.39C82.55,116.17,219.68,424,319,292.52c35.27-46.68,68-31.49,99.65-7.61C476.34,328.47,548.5,424,656.58,258.36,827.05-2.94,968,92.62,997,43.39c20.66-35.08,146.25,155.74,165.45,117.75" transform="translate(0 0)"/><path class="cls-142" d="M2.86,264.9C82.68,116.3,220,425,319.37,292.57c35.28-47,68.05-31.66,99.72-7.44C476.87,329.3,549,425.65,657.19,259.3,827.77-3,968.57,93.24,998,43.14c21.2-36.15,146,155.3,164.87,117.9" transform="translate(0 0)"/><path class="cls-143" d="M2.82,265.42c80-149,217.43,160.48,316.88,27.2,35.31-47.32,68.08-31.82,99.81-7.27,57.89,44.77,130,142,238.29-25.11C828.5-3.14,969.13,93.86,998.89,42.89c21.75-37.22,145.7,154.85,164.3,118.05" transform="translate(0 0)"/><path class="cls-144" d="M2.78,265.93C82.94,116.54,220.54,426.84,320,292.67c35.32-47.64,68.11-32,99.89-7.11C477.93,331,550,429,658.42,261.18,829.22-3.24,969.68,94.48,999.84,42.64c22.28-38.3,145.42,154.41,163.72,118.2" transform="translate(0 0)"/><path class="cls-144" d="M2.74,266.44c80.33-149.78,218.08,161.33,317.63,26.27,35.35-47.95,68.14-32.13,100-6.93,58.1,46,130.2,144.83,238.68-23.66C830-3.34,970.23,95.1,1000.78,42.39c22.83-39.37,145.15,154,163.15,118.34" transform="translate(0 0)"/><path class="cls-145" d="M2.7,267c80.5-150.17,218.41,161.76,318,25.81,35.36-48.27,68.17-32.29,100.06-6.76C479,332.61,551.06,432.26,659.65,263.06c171-266.5,311.13-167.34,342.08-220.91C1025.1,1.69,1146.6,195.66,1164.3,160.63" transform="translate(0 0)"/><path class="cls-146" d="M2.66,267.46C83.32,116.9,221.39,429.65,321.05,292.81c35.38-48.59,68.19-32.45,100.13-6.59,58.33,47.22,130.39,147.7,239.08-22.22C831.4-3.53,971.32,96.33,1002.67,41.9c23.92-41.53,144.6,153.06,162,118.63" transform="translate(0 0)"/><path class="cls-147" d="M2.63,268C83.45,117,221.68,430.58,321.38,292.85c35.41-48.9,68.22-32.61,100.22-6.41,58.43,47.83,130.48,149.13,239.28-21.5C832.12-3.63,971.87,97,1003.62,41.65,1028.08-1,1147.94,194.26,1165,160.43" transform="translate(0 0)"/><path class="cls-148" d="M2.59,268.48c81-151.33,219.1,162.84,319.13,24.42C357,243.61,390,260.13,422,286.65c58.54,48.45,130.58,150.57,239.47-20.77C832.84-3.73,972.42,97.57,1004.56,41.4c25-43.68,144,152.17,160.85,118.93" transform="translate(0 0)"/><path class="cls-148" d="M2.55,269C83.71,117.27,222,432.26,322.05,293c35.35-49.61,68.28-32.93,100.39-6.08,58.64,49.05,130.67,152,239.67-20.05C833.57-3.83,973,98.18,1005.51,41.15c25.54-44.76,143.77,151.72,160.27,119.07" transform="translate(0 0)"/><path class="cls-149" d="M2.51,269.5C83.84,117.39,222.27,433.2,322.39,293c35.37-49.93,68.3-33.09,100.47-5.91,58.74,49.66,130.76,153.44,239.86-19.33C834.29-3.93,973.5,98.8,1006.45,40.9c26.09-45.84,143.5,151.28,159.7,119.22" transform="translate(0 0)"/><path class="cls-150" d="M2.47,270C84,117.51,222.55,434.14,322.73,293c35.38-50.24,68.33-33.25,100.54-5.73,58.86,50.27,130.86,154.87,240.07-18.61C835-4,974.05,99.41,1007.4,40.65,1034-6.26,1150.62,191.48,1166.52,160" transform="translate(0 0)"/><path class="cls-151" d="M2.43,270.52C84.1,117.64,222.84,435.08,323.06,293.09c35.41-50.56,68.36-33.41,100.63-5.56,59,50.87,131,156.3,240.26-17.89C835.74-4.13,974.59,100,1008.34,40.4c27.17-48,142.95,150.39,158.55,119.52" transform="translate(0 0)"/><path class="cls-152" d="M2.4,271c81.83-153.27,220.73,165,321,22.11,35.43-50.88,68.38-33.57,100.71-5.4,59.06,51.49,131,157.74,240.46-17.16C836.47-4.23,975.13,100.64,1009.29,40.15,1037-8.92,1152,190.09,1167.26,159.82" transform="translate(0 0)"/><path class="cls-153" d="M2.36,271.54c82-153.66,221.06,165.42,321.37,21.64,35.45-51.19,68.41-33.73,100.8-5.22,59.17,52.1,131.14,159.18,240.65-16.44C837.2-4.33,975.67,101.25,1010.23,39.9c28.25-50.14,142.4,149.49,157.4,119.81" transform="translate(0 0)"/><path class="cls-153" d="M2.32,272.05C84.49,118,223.71,437.9,324.07,293.23c35.47-51.51,68.43-33.89,100.87-5.05,59.28,52.7,131.25,160.61,240.86-15.72C837.92-4.43,976.21,101.86,1011.18,39.66c28.79-51.23,142.12,149,156.82,120" transform="translate(0 0)"/><path class="cls-154" d="M2.28,272.56C84.62,118.12,224,438.84,324.4,293.28c35.5-51.83,68.46-34.06,101-4.88,59.38,53.31,131.34,162,241-15,172.24-277.93,310.34-170.93,345.71-234C1041.45-12.9,1154,188,1168.38,159.51" transform="translate(0 0)"/><path class="cls-155" d="M2.24,273.07c82.51-154.83,222.05,166.71,322.5,20.26,35.52-52.14,68.49-34.22,101-4.71C485.26,342.53,557.21,452.09,667,274.34c172.34-279,310.26-171.26,346-235.18,29.88-53.38,141.59,148.15,155.69,120.25" transform="translate(0 0)"/><path class="cls-156" d="M2.2,273.59c82.68-155.22,222.38,167.13,322.88,19.78,35.53-52.45,68.51-34.37,101.12-4.53,59.58,54.52,131.52,164.91,241.44-13.56C840.1-4.73,977.83,103.7,1014,38.91c30.41-54.46,141.31,147.7,155.11,120.39" transform="translate(0 0)"/><path class="cls-157" d="M2.17,274.1C85,118.49,224.87,441.66,325.41,293.42,361,240.65,394,258.88,426.62,289.05c59.68,55.13,131.62,166.35,241.64-12.83C840.83-4.83,978.37,104.31,1015,38.66c31-55.54,141,147.26,154.54,120.54" transform="translate(0 0)"/><path class="cls-158" d="M2.13,274.61c83-156,223,168,323.62,18.86,35.58-53.09,68.56-34.7,101.28-4.2C486.82,345,558.75,457.05,668.87,277.16c172.68-282.09,310-172.24,347-238.75,31.49-56.62,140.76,146.81,154,120.69" transform="translate(0 0)"/><path class="cls-158" d="M2.09,275.12c83.17-156.39,223.36,168.42,324,18.39,35.6-53.4,68.59-34.86,101.37-4,59.89,56.34,131.81,169.21,242-11.39C842.28-5,979.44,105.53,1016.84,38.16c32-57.7,140.49,146.36,153.39,120.84" transform="translate(0 0)"/><path class="cls-159" d="M2.05,275.63c83.34-156.78,223.69,168.85,324.37,17.93,35.62-53.72,68.61-35,101.45-3.85,60,56.94,131.91,170.65,242.23-10.67C843-5.13,980,106.14,1017.79,37.91c32.57-58.77,140.21,145.92,152.81,121" transform="translate(0 0)"/><path class="cls-160" d="M2,276.14C85.52,119,226,445.42,326.76,293.61c35.64-54,68.63-35.19,101.53-3.68,60.09,57.54,132,172.08,242.43-9.95,173-285.2,309.8-173.23,348-242.32,33.12-59.85,139.94,145.47,152.24,121.13" transform="translate(0 0)"/><path class="cls-161" d="M2,276.65c83.67-157.55,224.34,169.71,325.11,17,35.66-54.36,68.66-35.35,101.62-3.52,60.19,58.16,132.1,173.52,242.62-9.22C844.46-5.32,981.05,107.36,1019.68,37.42c33.65-60.94,139.66,145,151.66,121.27" transform="translate(0 0)"/><path class="cls-162" d="M1.94,277.16C85.78,119.22,226.61,447.3,327.43,293.7c35.68-54.67,68.68-35.51,101.69-3.34,60.3,58.76,132.2,175,242.83-8.5C845.19-5.42,981.59,108,1020.62,37.17c34.19-62,139.39,144.57,151.09,121.42" transform="translate(0 0)"/><path class="cls-163" d="M1.9,277.67c84-158.33,225,170.57,325.86,16.08,35.71-55,68.71-35.68,101.78-3.17,60.4,59.36,132.29,176.39,243-7.78,173.35-288.32,309.56-174.23,349-245.88,34.73-63.1,139.11,144.13,150.51,121.57" transform="translate(0 0)"/><path class="cls-164" d="M1.86,278.18C86,119.46,227.18,449.18,328.1,293.8c35.72-55.31,68.73-35.84,101.86-3,60.5,60,132.39,177.82,243.22-7.06C846.64-5.62,982.66,109.18,1022.51,36.67c35.27-64.18,138.84,143.68,149.94,121.72" transform="translate(0 0)"/><path class="cls-164" d="M1.82,278.69c84.35-159.11,225.65,171.43,326.62,15.15,35.74-55.61,68.74-36,101.94-2.82,60.6,60.57,132.48,179.25,243.41-6.34C847.37-5.72,983.19,109.79,1023.46,36.42c35.8-65.25,138.56,143.23,149.36,121.86" transform="translate(0 0)"/><path class="cls-165" d="M1.78,279.2c84.52-159.49,226,171.86,327,14.69,35.77-55.93,68.77-36.17,102-2.66,60.7,61.18,132.58,180.7,243.61-5.61C848.1-5.82,983.73,110.4,1024.4,36.17c36.35-66.33,138.29,142.79,148.79,122" transform="translate(0 0)"/><path class="cls-166" d="M1.75,279.71C86.43,119.83,228.05,452,329.11,293.94c35.78-56.25,68.79-36.33,102.1-2.49C492,353.23,563.89,473.58,675,286.56,848.82-5.92,984.26,111,1025.35,35.92c36.88-67.41,138,142.34,148.21,122.16" transform="translate(0 0)"/><path class="cls-167" d="M1.71,280.22C86.56,120,228.34,452.94,329.44,294c35.81-56.57,68.82-36.5,102.19-2.32,60.9,62.38,132.77,183.56,244-4.17C849.55-6,984.79,111.62,1026.29,35.67,1063.71-32.82,1164,177.57,1173.93,158" transform="translate(0 0)"/><path class="cls-168" d="M1.67,280.73c85-160.66,227,173.15,328.11,13.3,35.83-56.88,68.84-36.66,102.27-2.14,61,63,132.87,185,244.2-3.45,174-294.56,309.08-176.21,351-253,38-69.57,137.47,141.45,147.07,122.45" transform="translate(0 0)"/><path class="cls-169" d="M1.63,281.25c85.19-161.06,227.29,173.57,328.49,12.83,35.85-57.2,68.86-36.82,102.35-2,61.1,63.58,133,186.43,244.4-2.73C851-6.22,985.86,112.83,1028.18,35.17c38.5-70.65,137.19,141,146.49,122.6" transform="translate(0 0)"/><path class="cls-170" d="M1.59,281.76c85.36-161.45,227.62,174,328.86,12.37,35.87-57.52,68.89-37,102.43-1.8,61.2,64.18,133.07,187.86,244.6-2C851.74-6.32,986.39,113.44,1029.12,34.93c39-71.74,136.92,140.55,145.92,122.74" transform="translate(0 0)"/><path class="cls-171" d="M1.55,282.27c85.53-161.83,228,174.43,329.24,11.91,35.89-57.84,68.9-37.16,102.51-1.64,61.3,64.79,133.16,189.3,244.8-1.28,174.36-297.68,308.83-177.21,352-256.58,39.58-72.82,136.64,140.1,145.34,122.89" transform="translate(0 0)"/><path class="cls-172" d="M1.52,282.78c85.68-162.22,228.27,174.86,329.6,11.44,35.92-58.15,68.93-37.32,102.6-1.46,61.4,65.39,133.26,190.74,245-.56C853.19-6.52,987.46,114.66,1031,34.43c40.12-73.9,136.37,139.66,144.77,123" transform="translate(0 0)"/><path class="cls-173" d="M1.48,283.29c85.85-162.61,228.6,175.29,330,11,35.93-58.47,69-37.48,102.68-1.29,61.49,66,133.35,192.17,245.19.16C853.92-6.62,988,115.26,1032,34.18c40.65-75,136.09,139.21,144.19,123.18" transform="translate(0 0)"/><path class="cls-174" d="M1.44,283.8c86-163,228.93,175.72,330.35,10.52,36-58.79,69-37.65,102.77-1.12,61.59,66.59,133.82,193.82,245.38.88C855.23-6.38,988.53,115.87,1032.9,33.93c41.19-76.06,135.82,138.77,143.62,123.33" transform="translate(0 0)"/><path class="cls-174" d="M1.4,284.31c86.19-163.39,229.26,176.15,330.73,10.05,36-59.1,69-37.81,102.84-.94,61.7,67.18,133.91,195.24,245.59,1.6C855.94-6.49,989.06,116.48,1033.85,33.68c41.73-77.14,135.54,138.32,143,123.48" transform="translate(0 0)"/><path class="cls-175" d="M1.36,284.82C87.72,121.05,231,461.41,332.47,294.41c36-59.41,69-38,102.92-.78,61.79,67.79,134,196.68,245.78,2.33C856.65-6.6,989.59,117.08,1034.79,33.43c42.27-78.22,135.27,137.87,142.47,123.63" transform="translate(0 0)"/><path class="cls-176" d="M1.32,285.33c86.53-164.16,229.92,177,331.48,9.13,36-59.73,69-38.15,103-.61,61.89,68.39,134.08,198.1,246,3,175.56-303.62,308.33-179.21,354-263.72,42.8-79.3,135,137.43,141.89,123.78" transform="translate(0 0)"/><path class="cls-177" d="M1.29,285.84C88,121.29,231.52,463.29,333.14,294.51c36-60,69.06-38.31,103.09-.44,62,69,134.16,199.52,246.17,3.77C858.06-6.83,990.81,118.38,1036.68,32.93c43.5-80.29,134.72,137,141.32,123.92" transform="translate(0 0)"/><path class="cls-178" d="M1.25,286.35c86.86-164.94,230.56,177.88,332.22,8.2,36.06-60.36,69.09-38.47,103.18-.26,62.08,69.59,134.24,201,246.37,4.49C858.77-6.94,991.34,119,1037.63,32.69c44-81.39,134.44,136.53,140.74,124.06" transform="translate(0 0)"/><path class="cls-179" d="M1.21,286.86c87-165.33,230.89,178.31,332.6,7.74,36.08-60.68,69.1-38.64,103.25-.09,62.18,70.18,134.33,202.37,246.57,5.21C859.48-7,991.86,119.59,1038.57,32.44c44.55-82.47,134.17,136.08,140.17,124.21" transform="translate(0 0)"/><path class="cls-180" d="M1.17,287.37c87.2-165.72,231.22,178.74,333,7.28,36.1-61,69.12-38.81,103.33.07,62.28,70.79,134.41,203.81,246.77,5.94C860.19-7.17,992.38,120.19,1039.52,32.19c45.08-83.56,133.89,135.64,139.59,124.36" transform="translate(0 0)"/><path class="cls-181" d="M1.13,287.88c87.37-166.1,231.55,179.17,333.35,6.81,36.12-61.31,69.15-39,103.42.25,62.38,71.39,134.49,205.23,247,6.66,176-308.88,308-180.81,355.6-269.66,45.61-84.64,133.62,135.19,139,124.51" transform="translate(0 0)"/><path class="cls-182" d="M1.09,288.39C88.63,121.9,233,468,334.82,294.74c36.14-61.63,69.16-39.14,103.5.42,62.47,72,134.58,206.66,247.16,7.38C861.6-7.39,993.43,121.39,1041.4,31.69c46.15-85.72,133.35,134.74,138.45,124.65" transform="translate(0 0)"/><path class="cls-183" d="M1.06,288.9c87.7-166.88,232.2,180,334.09,5.89,36.17-62,69.19-39.31,103.59.59,62.57,72.58,134.66,208.08,247.35,8.1C862.31-7.5,994,122,1042.35,31.44c46.67-86.81,133.07,134.3,137.87,124.8" transform="translate(0 0)"/><path class="cls-184" d="M1,289.42c87.87-167.28,232.53,180.45,334.47,5.42,36.19-62.27,69.21-39.48,103.66.76,62.67,73.18,134.75,209.5,247.56,8.82C863-7.62,994.47,122.6,1043.29,31.19c47.21-87.89,132.8,133.85,137.3,125" transform="translate(0 0)"/><path class="cls-185" d="M1,289.93c88-167.67,232.86,180.88,334.85,4.95,36.2-62.58,69.22-39.64,103.74.94,62.77,73.77,134.83,210.93,247.75,9.54C863.73-7.73,995,123.2,1044.24,30.94,1092-58,1176.76,164.35,1181,156" transform="translate(0 0)"/><path class="cls-186" d="M.94,290.44c88.2-168,233.19,181.31,335.22,4.49C372.39,232,405.41,255.12,440,296c62.86,74.38,134.91,212.36,248,10.27C864.43-7.84,995.52,123.8,1045.18,30.69c48.27-90.06,132.25,133,136.15,125.24" transform="translate(0 0)"/><path class="cls-187" d="M.9,291c88.37-168.44,233.52,181.74,335.6,4,36.25-63.21,69.27-40,103.91,1.27,62.95,75,135,213.79,248.14,11C865.14-8,996,124.4,1046.13,30.45c48.79-91.15,132,132.51,135.57,125.38" transform="translate(0 0)"/><path class="cls-188" d="M.86,291.46c88.54-168.83,233.85,182.17,336,3.56,36.27-63.52,69.29-40.14,104,1.45C503.88,372,575.91,511.68,689.17,308.18,865.85-8.07,996.56,125,1047.07,30.2c49.32-92.24,131.7,132.06,135,125.53" transform="translate(0 0)"/><path class="cls-189" d="M.83,292c88.7-169.22,234.17,182.6,336.34,3.1,36.29-63.84,69.31-40.31,104.07,1.62,63.15,76.16,135.17,216.64,248.54,12.43C866.56-8.18,997.09,125.61,1048,30c49.85-93.32,131.42,131.61,134.42,125.68" transform="translate(0 0)"/><path class="cls-190" d="M.79,292.48c88.87-169.61,234.5,183,336.72,2.64,36.31-64.16,69.33-40.48,104.15,1.79C504.91,373.67,576.91,515,690.4,310.06,867.26-8.29,997.61,126.21,1049,29.7c50.38-94.41,131.15,131.17,133.85,125.83" transform="translate(0 0)"/><path class="cls-191" d="M.75,293c89-170,234.83,183.46,337.09,2.18,36.33-64.48,69.35-40.65,104.24,1.95C505.42,374.48,577.41,516.62,691,311,868-8.41,998.13,126.81,1049.91,29.45c50.91-95.49,130.87,130.72,133.27,126" transform="translate(0 0)"/><path class="cls-192" d="M.71,293.5c89.21-170.38,235.15,183.89,337.47,1.71,36.35-64.79,69.37-40.81,104.32,2.13,63.44,78,135.41,220.92,249.13,14.6,177-320.46,307-184.53,359.22-282.74,51.44-96.57,130.6,130.28,132.7,126.12" transform="translate(0 0)"/><path class="cls-193" d="M.67,294c89.38-170.77,235.48,184.32,337.84,1.25,36.38-65.11,69.39-41,104.4,2.3,63.54,78.55,135.5,222.34,249.33,15.32C869.39-8.63,999.18,128,1051.8,29c52-97.66,130.32,129.83,132.12,126.27" transform="translate(0 0)"/><path class="cls-194" d="M.63,294.52c89.55-171.16,235.81,184.75,338.22.79,36.39-65.43,69.33-41.09,104.48,2.47,63.49,79.26,135.59,223.77,249.53,16C870.1-8.74,999.7,128.62,1052.74,28.7c52.5-98.74,130,129.39,131.55,126.42" transform="translate(0 0)"/><path class="cls-195" d="M.6,295c89.71-171.55,236.13,185.18,338.58.32,36.42-65.74,69.37-41.26,104.57,2.65,63.61,79.83,135.67,225.19,249.72,16.76C870.8-8.86,1000.22,129.22,1053.69,28.45c53-99.83,129.77,128.94,131,126.57" transform="translate(0 0)"/><path class="cls-196" d="M.56,295.54c89.88-171.94,236.46,185.61,339-.14C376,229.34,408.93,254,444.17,298.21c63.74,80.41,135.75,226.63,249.92,17.49C871.51-9,1000.75,129.82,1054.63,28.2c53.56-100.91,129.5,128.49,130.4,126.71" transform="translate(0 0)"/><path class="cls-197" d="M.52,296.05c90.05-172.33,236.79,186,339.34-.6,36.45-66.38,69.44-41.63,104.73,3,63.86,81,135.83,228.05,250.11,18.21C872.22-9.08,1001.27,130.42,1055.58,28c54.08-102,129.22,128,129.82,126.85" transform="translate(0 0)"/><path class="cls-198" d="M.48,296.56C90.7,123.85,237.6,483,340.19,295.5c36.48-66.69,69.48-41.82,104.81,3.15,64,81.55,135.92,229.48,250.32,18.93C872.93-9.2,1001.79,131,1056.52,27.71c54.62-103.09,129,127.59,129.26,127" transform="translate(0 0)"/><path class="cls-199" d="M.44,297.07C90.83,124,237.89,484,340.53,295.54s177.7,350.81,355.4,23,306.39-186.89,361.53-291.06,128.69,127.15,128.69,127.15" transform="translate(0 0)"/></g></g></svg>