<svg xmlns="http://www.w3.org/2000/svg" xmlns:xlink="http://www.w3.org/1999/xlink" viewBox="0 0 722.49 506.55"><defs><style>.cls-1{fill:url(#linear-gradient);}.cls-2{opacity:0.61;}.cls-10,.cls-100,.cls-101,.cls-102,.cls-103,.cls-11,.cls-12,.cls-13,.cls-14,.cls-15,.cls-16,.cls-17,.cls-18,.cls-19,.cls-20,.cls-21,.cls-22,.cls-23,.cls-24,.cls-25,.cls-26,.cls-27,.cls-28,.cls-29,.cls-3,.cls-30,.cls-31,.cls-32,.cls-33,.cls-34,.cls-35,.cls-36,.cls-37,.cls-38,.cls-39,.cls-4,.cls-40,.cls-41,.cls-42,.cls-43,.cls-44,.cls-45,.cls-46,.cls-47,.cls-48,.cls-49,.cls-5,.cls-50,.cls-51,.cls-52,.cls-53,.cls-54,.cls-55,.cls-56,.cls-57,.cls-58,.cls-59,.cls-6,.cls-60,.cls-61,.cls-62,.cls-63,.cls-64,.cls-65,.cls-66,.cls-67,.cls-68,.cls-69,.cls-7,.cls-70,.cls-71,.cls-72,.cls-73,.cls-74,.cls-75,.cls-76,.cls-77,.cls-78,.cls-79,.cls-8,.cls-80,.cls-81,.cls-82,.cls-83,.cls-84,.cls-85,.cls-86,.cls-87,.cls-88,.cls-89,.cls-9,.cls-90,.cls-91,.cls-92,.cls-93,.cls-94,.cls-95,.cls-96,.cls-97,.cls-98,.cls-99{fill:none;stroke-miterlimit:10;stroke-width:1.12px;}.cls-3{stroke:url(#linear-gradient-2);}.cls-4{stroke:url(#linear-gradient-3);}.cls-5{stroke:url(#linear-gradient-4);}.cls-6{stroke:url(#linear-gradient-5);}.cls-7{stroke:url(#linear-gradient-6);}.cls-8{stroke:url(#linear-gradient-7);}.cls-9{stroke:url(#linear-gradient-8);}.cls-10{stroke:url(#linear-gradient-9);}.cls-11{stroke:url(#linear-gradient-10);}.cls-12{stroke:url(#linear-gradient-11);}.cls-13{stroke:url(#linear-gradient-12);}.cls-14{stroke:url(#linear-gradient-13);}.cls-15{stroke:url(#linear-gradient-14);}.cls-16{stroke:url(#linear-gradient-15);}.cls-17{stroke:url(#linear-gradient-16);}.cls-18{stroke:url(#linear-gradient-17);}.cls-19{stroke:url(#linear-gradient-18);}.cls-20{stroke:url(#linear-gradient-19);}.cls-21{stroke:url(#linear-gradient-20);}.cls-22{stroke:url(#linear-gradient-21);}.cls-23{stroke:url(#linear-gradient-22);}.cls-24{stroke:url(#linear-gradient-23);}.cls-25{stroke:url(#linear-gradient-24);}.cls-26{stroke:url(#linear-gradient-25);}.cls-27{stroke:url(#linear-gradient-26);}.cls-28{stroke:url(#linear-gradient-27);}.cls-29{stroke:url(#linear-gradient-28);}.cls-30{stroke:url(#linear-gradient-29);}.cls-31{stroke:url(#linear-gradient-30);}.cls-32{stroke:url(#linear-gradient-31);}.cls-33{stroke:url(#linear-gradient-32);}.cls-34{stroke:url(#linear-gradient-33);}.cls-35{stroke:url(#linear-gradient-34);}.cls-36{stroke:url(#linear-gradient-35);}.cls-37{stroke:url(#linear-gradient-36);}.cls-38{stroke:url(#linear-gradient-37);}.cls-39{stroke:url(#linear-gradient-38);}.cls-40{stroke:url(#linear-gradient-39);}.cls-41{stroke:url(#linear-gradient-40);}.cls-42{stroke:url(#linear-gradient-41);}.cls-43{stroke:url(#linear-gradient-42);}.cls-44{stroke:url(#linear-gradient-43);}.cls-45{stroke:url(#linear-gradient-44);}.cls-46{stroke:url(#linear-gradient-45);}.cls-47{stroke:url(#linear-gradient-46);}.cls-48{stroke:url(#linear-gradient-47);}.cls-49{stroke:url(#linear-gradient-48);}.cls-50{stroke:url(#linear-gradient-49);}.cls-51{stroke:url(#linear-gradient-50);}.cls-52{stroke:url(#linear-gradient-51);}.cls-53{stroke:url(#linear-gradient-52);}.cls-54{stroke:url(#linear-gradient-53);}.cls-55{stroke:url(#linear-gradient-54);}.cls-56{stroke:url(#linear-gradient-55);}.cls-57{stroke:url(#linear-gradient-56);}.cls-58{stroke:url(#linear-gradient-57);}.cls-59{stroke:url(#linear-gradient-58);}.cls-60{stroke:url(#linear-gradient-59);}.cls-61{stroke:url(#linear-gradient-60);}.cls-62{stroke:url(#linear-gradient-61);}.cls-63{stroke:url(#linear-gradient-62);}.cls-64{stroke:url(#linear-gradient-63);}.cls-65{stroke:url(#linear-gradient-64);}.cls-66{stroke:url(#linear-gradient-65);}.cls-67{stroke:url(#linear-gradient-66);}.cls-68{stroke:url(#linear-gradient-67);}.cls-69{stroke:url(#linear-gradient-68);}.cls-70{stroke:url(#linear-gradient-69);}.cls-71{stroke:url(#linear-gradient-70);}.cls-72{stroke:url(#linear-gradient-71);}.cls-73{stroke:url(#linear-gradient-72);}.cls-74{stroke:url(#linear-gradient-73);}.cls-75{stroke:url(#linear-gradient-74);}.cls-76{stroke:url(#linear-gradient-75);}.cls-77{stroke:url(#linear-gradient-76);}.cls-78{stroke:url(#linear-gradient-77);}.cls-79{stroke:url(#linear-gradient-78);}.cls-80{stroke:url(#linear-gradient-79);}.cls-81{stroke:url(#linear-gradient-80);}.cls-82{stroke:url(#linear-gradient-81);}.cls-83{stroke:url(#linear-gradient-82);}.cls-84{stroke:url(#linear-gradient-83);}.cls-85{stroke:url(#linear-gradient-84);}.cls-86{stroke:url(#linear-gradient-85);}.cls-87{stroke:url(#linear-gradient-86);}.cls-88{stroke:url(#linear-gradient-87);}.cls-89{stroke:url(#linear-gradient-88);}.cls-90{stroke:url(#linear-gradient-89);}.cls-91{stroke:url(#linear-gradient-90);}.cls-92{stroke:url(#linear-gradient-91);}.cls-93{stroke:url(#linear-gradient-92);}.cls-94{stroke:url(#linear-gradient-93);}.cls-95{stroke:url(#linear-gradient-94);}.cls-96{stroke:url(#linear-gradient-95);}.cls-97{stroke:url(#linear-gradient-96);}.cls-98{stroke:url(#linear-gradient-97);}.cls-99{stroke:url(#linear-gradient-98);}.cls-100{stroke:url(#linear-gradient-99);}.cls-101{stroke:url(#linear-gradient-100);}.cls-102{stroke:url(#linear-gradient-101);}.cls-103{stroke:url(#linear-gradient-102);}</style><linearGradient id="linear-gradient" x1="110.49" y1="-54.83" x2="436.28" y2="345.51" gradientUnits="userSpaceOnUse"><stop offset="0" stop-color="#39b54a"/><stop offset="1" stop-color="#006838"/></linearGradient><linearGradient id="linear-gradient-2" x1="217.11" y1="327.34" x2="505.32" y2="681.5" gradientUnits="userSpaceOnUse"><stop offset="0" stop-color="#f9ed32"/><stop offset="0.51" stop-color="#006838"/></linearGradient><linearGradient id="linear-gradient-3" x1="217.11" y1="320.22" x2="505.32" y2="674.4" xlink:href="#linear-gradient-2"/><linearGradient id="linear-gradient-4" x1="217.11" y1="313.16" x2="505.33" y2="667.34" xlink:href="#linear-gradient-2"/><linearGradient id="linear-gradient-5" x1="217.11" y1="306.15" x2="505.33" y2="660.33" xlink:href="#linear-gradient-2"/><linearGradient id="linear-gradient-6" x1="217.11" y1="299.2" x2="505.33" y2="653.38" xlink:href="#linear-gradient-2"/><linearGradient id="linear-gradient-7" x1="217.11" y1="292.3" x2="505.33" y2="646.48" xlink:href="#linear-gradient-2"/><linearGradient id="linear-gradient-8" x1="217.11" y1="285.46" x2="505.33" y2="639.64" xlink:href="#linear-gradient-2"/><linearGradient id="linear-gradient-9" x1="217.11" y1="278.68" x2="505.33" y2="632.85" xlink:href="#linear-gradient-2"/><linearGradient id="linear-gradient-10" x1="217.12" y1="271.95" x2="505.33" y2="626.12" xlink:href="#linear-gradient-2"/><linearGradient id="linear-gradient-11" x1="217.12" y1="265.28" x2="505.33" y2="619.45" xlink:href="#linear-gradient-2"/><linearGradient id="linear-gradient-12" x1="217.12" y1="258.67" x2="505.33" y2="612.84" xlink:href="#linear-gradient-2"/><linearGradient id="linear-gradient-13" x1="217.12" y1="252.12" x2="505.33" y2="606.29" xlink:href="#linear-gradient-2"/><linearGradient id="linear-gradient-14" x1="217.11" y1="245.63" x2="505.34" y2="599.81" xlink:href="#linear-gradient-2"/><linearGradient id="linear-gradient-15" x1="217.11" y1="239.2" x2="505.34" y2="593.39" xlink:href="#linear-gradient-2"/><linearGradient id="linear-gradient-16" x1="217.11" y1="232.83" x2="505.34" y2="587.02" xlink:href="#linear-gradient-2"/><linearGradient id="linear-gradient-17" x1="217.11" y1="226.52" x2="505.34" y2="580.71" xlink:href="#linear-gradient-2"/><linearGradient id="linear-gradient-18" x1="217.11" y1="220.27" x2="505.34" y2="574.46" xlink:href="#linear-gradient-2"/><linearGradient id="linear-gradient-19" x1="217.11" y1="214.08" x2="505.35" y2="568.28" xlink:href="#linear-gradient-2"/><linearGradient id="linear-gradient-20" x1="217.1" y1="207.95" x2="505.35" y2="562.16" xlink:href="#linear-gradient-2"/><linearGradient id="linear-gradient-21" x1="217.1" y1="201.88" x2="505.35" y2="556.1" xlink:href="#linear-gradient-2"/><linearGradient id="linear-gradient-22" x1="217.09" y1="195.87" x2="505.36" y2="550.1" xlink:href="#linear-gradient-2"/><linearGradient id="linear-gradient-23" x1="217.09" y1="189.93" x2="505.36" y2="544.16" xlink:href="#linear-gradient-2"/><linearGradient id="linear-gradient-24" x1="217.08" y1="184.04" x2="505.36" y2="538.29" xlink:href="#linear-gradient-2"/><linearGradient id="linear-gradient-25" x1="217.08" y1="178.22" x2="505.37" y2="532.48" xlink:href="#linear-gradient-2"/><linearGradient id="linear-gradient-26" x1="217.07" y1="172.46" x2="505.37" y2="526.73" xlink:href="#linear-gradient-2"/><linearGradient id="linear-gradient-27" x1="217.07" y1="166.77" x2="505.37" y2="521.05" xlink:href="#linear-gradient-2"/><linearGradient id="linear-gradient-28" x1="217.06" y1="161.13" x2="505.38" y2="515.43" xlink:href="#linear-gradient-2"/><linearGradient id="linear-gradient-29" x1="217.06" y1="155.57" x2="505.38" y2="509.87" xlink:href="#linear-gradient-2"/><linearGradient id="linear-gradient-30" x1="217.05" y1="150.06" x2="505.39" y2="504.38" xlink:href="#linear-gradient-2"/><linearGradient id="linear-gradient-31" x1="217.05" y1="144.62" x2="505.39" y2="498.95" xlink:href="#linear-gradient-2"/><linearGradient id="linear-gradient-32" x1="217.04" y1="139.24" x2="505.39" y2="493.58" xlink:href="#linear-gradient-2"/><linearGradient id="linear-gradient-33" x1="217.04" y1="133.93" x2="505.4" y2="488.28" xlink:href="#linear-gradient-2"/><linearGradient id="linear-gradient-34" x1="217.03" y1="128.68" x2="505.4" y2="483.04" xlink:href="#linear-gradient-2"/><linearGradient id="linear-gradient-35" x1="217.03" y1="123.5" x2="505.41" y2="477.87" xlink:href="#linear-gradient-2"/><linearGradient id="linear-gradient-36" x1="217.03" y1="118.38" x2="505.41" y2="472.76" xlink:href="#linear-gradient-2"/><linearGradient id="linear-gradient-37" x1="217.02" y1="113.33" x2="505.41" y2="467.72" xlink:href="#linear-gradient-2"/><linearGradient id="linear-gradient-38" x1="217.02" y1="108.34" x2="505.42" y2="462.74" xlink:href="#linear-gradient-2"/><linearGradient id="linear-gradient-39" x1="217.02" y1="103.43" x2="505.42" y2="457.83" xlink:href="#linear-gradient-2"/><linearGradient id="linear-gradient-40" x1="217.01" y1="98.58" x2="505.42" y2="452.99" xlink:href="#linear-gradient-2"/><linearGradient id="linear-gradient-41" x1="217.01" y1="93.8" x2="505.43" y2="448.22" xlink:href="#linear-gradient-2"/><linearGradient id="linear-gradient-42" x1="217" y1="89.08" x2="505.43" y2="443.51" xlink:href="#linear-gradient-2"/><linearGradient id="linear-gradient-43" x1="217" y1="84.44" x2="505.43" y2="438.88" xlink:href="#linear-gradient-2"/><linearGradient id="linear-gradient-44" x1="217" y1="79.86" x2="505.44" y2="434.31" xlink:href="#linear-gradient-2"/><linearGradient id="linear-gradient-45" x1="216.99" y1="75.34" x2="505.44" y2="429.81" xlink:href="#linear-gradient-2"/><linearGradient id="linear-gradient-46" x1="216.99" y1="70.9" x2="505.45" y2="425.38" xlink:href="#linear-gradient-2"/><linearGradient id="linear-gradient-47" x1="216.98" y1="66.53" x2="505.45" y2="421.01" xlink:href="#linear-gradient-2"/><linearGradient id="linear-gradient-48" x1="216.98" y1="62.22" x2="505.46" y2="416.72" xlink:href="#linear-gradient-2"/><linearGradient id="linear-gradient-49" x1="216.97" y1="57.99" x2="505.47" y2="412.5" xlink:href="#linear-gradient-2"/><linearGradient id="linear-gradient-50" x1="216.97" y1="53.82" x2="505.47" y2="408.35" xlink:href="#linear-gradient-2"/><linearGradient id="linear-gradient-51" x1="216.96" y1="49.73" x2="505.48" y2="404.27" xlink:href="#linear-gradient-2"/><linearGradient id="linear-gradient-52" x1="216.96" y1="45.7" x2="505.48" y2="400.26" xlink:href="#linear-gradient-2"/><linearGradient id="linear-gradient-53" x1="216.95" y1="41.75" x2="505.49" y2="396.32" xlink:href="#linear-gradient-2"/><linearGradient id="linear-gradient-54" x1="216.95" y1="37.87" x2="505.49" y2="392.45" xlink:href="#linear-gradient-2"/><linearGradient id="linear-gradient-55" x1="216.94" y1="34.07" x2="505.5" y2="388.66" xlink:href="#linear-gradient-2"/><linearGradient id="linear-gradient-56" x1="216.94" y1="30.33" x2="505.5" y2="384.93" xlink:href="#linear-gradient-2"/><linearGradient id="linear-gradient-57" x1="216.93" y1="26.67" x2="505.51" y2="381.28" xlink:href="#linear-gradient-2"/><linearGradient id="linear-gradient-58" x1="216.93" y1="23.08" x2="505.51" y2="377.71" xlink:href="#linear-gradient-2"/><linearGradient id="linear-gradient-59" x1="216.92" y1="19.57" x2="505.52" y2="374.2" xlink:href="#linear-gradient-2"/><linearGradient id="linear-gradient-60" x1="216.92" y1="16.13" x2="505.52" y2="370.77" xlink:href="#linear-gradient-2"/><linearGradient id="linear-gradient-61" x1="216.91" y1="12.76" x2="505.53" y2="367.42" xlink:href="#linear-gradient-2"/><linearGradient id="linear-gradient-62" x1="216.91" y1="9.47" x2="505.53" y2="364.14" xlink:href="#linear-gradient-2"/><linearGradient id="linear-gradient-63" x1="216.9" y1="6.25" x2="505.54" y2="360.94" xlink:href="#linear-gradient-2"/><linearGradient id="linear-gradient-64" x1="216.9" y1="3.1" x2="505.55" y2="357.81" xlink:href="#linear-gradient-2"/><linearGradient id="linear-gradient-65" x1="216.89" y1="0.03" x2="505.55" y2="354.76" xlink:href="#linear-gradient-2"/><linearGradient id="linear-gradient-66" x1="216.88" y1="-2.96" x2="505.56" y2="351.78" xlink:href="#linear-gradient-2"/><linearGradient id="linear-gradient-67" x1="216.87" y1="-5.88" x2="505.57" y2="348.88" xlink:href="#linear-gradient-2"/><linearGradient id="linear-gradient-68" x1="216.87" y1="-8.72" x2="505.57" y2="346.05" xlink:href="#linear-gradient-2"/><linearGradient id="linear-gradient-69" x1="216.86" y1="-11.49" x2="505.58" y2="343.3" xlink:href="#linear-gradient-2"/><linearGradient id="linear-gradient-70" x1="216.86" y1="-14.17" x2="505.58" y2="340.63" xlink:href="#linear-gradient-2"/><linearGradient id="linear-gradient-71" x1="216.85" y1="-16.78" x2="505.59" y2="338.03" xlink:href="#linear-gradient-2"/><linearGradient id="linear-gradient-72" x1="216.84" y1="-19.32" x2="505.6" y2="335.51" xlink:href="#linear-gradient-2"/><linearGradient id="linear-gradient-73" x1="216.84" y1="-21.77" x2="505.6" y2="333.07" xlink:href="#linear-gradient-2"/><linearGradient id="linear-gradient-74" x1="216.83" y1="-24.15" x2="505.61" y2="330.71" xlink:href="#linear-gradient-2"/><linearGradient id="linear-gradient-75" x1="216.83" y1="-26.44" x2="505.61" y2="328.43" xlink:href="#linear-gradient-2"/><linearGradient id="linear-gradient-76" x1="216.82" y1="-28.66" x2="505.62" y2="326.22" xlink:href="#linear-gradient-2"/><linearGradient id="linear-gradient-77" x1="216.82" y1="-30.8" x2="505.62" y2="324.09" xlink:href="#linear-gradient-2"/><linearGradient id="linear-gradient-78" x1="216.81" y1="-32.86" x2="505.62" y2="322.04" xlink:href="#linear-gradient-2"/><linearGradient id="linear-gradient-79" x1="216.81" y1="-34.84" x2="505.63" y2="320.08" xlink:href="#linear-gradient-2"/><linearGradient id="linear-gradient-80" x1="216.8" y1="-36.74" x2="505.63" y2="318.19" xlink:href="#linear-gradient-2"/><linearGradient id="linear-gradient-81" x1="216.8" y1="-38.56" x2="505.64" y2="316.38" xlink:href="#linear-gradient-2"/><linearGradient id="linear-gradient-82" x1="216.79" y1="-40.3" x2="505.64" y2="314.65" xlink:href="#linear-gradient-2"/><linearGradient id="linear-gradient-83" x1="216.79" y1="-41.95" x2="505.64" y2="313.01" xlink:href="#linear-gradient-2"/><linearGradient id="linear-gradient-84" x1="216.78" y1="-43.53" x2="505.65" y2="311.44" xlink:href="#linear-gradient-2"/><linearGradient id="linear-gradient-85" x1="216.78" y1="-45.02" x2="505.65" y2="309.96" xlink:href="#linear-gradient-2"/><linearGradient id="linear-gradient-86" x1="216.77" y1="-46.43" x2="505.65" y2="308.55" xlink:href="#linear-gradient-2"/><linearGradient id="linear-gradient-87" x1="216.77" y1="-47.76" x2="505.66" y2="307.23" xlink:href="#linear-gradient-2"/><linearGradient id="linear-gradient-88" x1="216.77" y1="-49.01" x2="505.66" y2="306" xlink:href="#linear-gradient-2"/><linearGradient id="linear-gradient-89" x1="216.76" y1="-50.17" x2="505.66" y2="304.84" xlink:href="#linear-gradient-2"/><linearGradient id="linear-gradient-90" x1="216.76" y1="-51.25" x2="505.66" y2="303.77" xlink:href="#linear-gradient-2"/><linearGradient id="linear-gradient-91" x1="216.75" y1="-52.25" x2="505.67" y2="302.78" xlink:href="#linear-gradient-2"/><linearGradient id="linear-gradient-92" x1="216.75" y1="-53.16" x2="505.67" y2="301.88" xlink:href="#linear-gradient-2"/><linearGradient id="linear-gradient-93" x1="216.75" y1="-53.98" x2="505.67" y2="301.06" xlink:href="#linear-gradient-2"/><linearGradient id="linear-gradient-94" x1="216.74" y1="-54.73" x2="505.67" y2="300.32" xlink:href="#linear-gradient-2"/><linearGradient id="linear-gradient-95" x1="216.74" y1="-55.38" x2="505.67" y2="299.67" xlink:href="#linear-gradient-2"/><linearGradient id="linear-gradient-96" x1="216.74" y1="-55.95" x2="505.68" y2="299.11" xlink:href="#linear-gradient-2"/><linearGradient id="linear-gradient-97" x1="216.73" y1="-56.44" x2="505.68" y2="298.63" xlink:href="#linear-gradient-2"/><linearGradient id="linear-gradient-98" x1="216.73" y1="-56.84" x2="505.68" y2="298.23" xlink:href="#linear-gradient-2"/><linearGradient id="linear-gradient-99" x1="216.73" y1="-57.15" x2="505.68" y2="297.92" xlink:href="#linear-gradient-2"/><linearGradient id="linear-gradient-100" x1="216.73" y1="-57.38" x2="505.68" y2="297.7" xlink:href="#linear-gradient-2"/><linearGradient id="linear-gradient-101" x1="216.72" y1="-57.52" x2="505.68" y2="297.56" xlink:href="#linear-gradient-2"/><linearGradient id="linear-gradient-102" x1="216.72" y1="-57.57" x2="505.68" y2="297.51" xlink:href="#linear-gradient-2"/></defs><title>Asset 2bg2</title><g id="Layer_2" data-name="Layer 2"><g id="Layer_1-2" data-name="Layer 1"><rect class="cls-1" x="0.2" width="722.04" height="506.55"/><g class="cls-2"><path class="cls-3" d="M.2,504.42c240.68,0,481.36.67,722,0"/><path class="cls-4" d="M.2,497.3q180.52-.37,360.83-1.76c120.39-.73,240.84,4.68,361.21,1.76"/><path class="cls-5" d="M.2,490.24c35.12-.2,70.22-2.68,105.35-2.23,31.94.42,63.67,5.45,95.61,6.33,53.49,1.47,106.55-7.24,160-8.35,120.31-2.51,240.84,8,361.09,4.25"/><path class="cls-6" d="M.2,483.24c35.12-.37,70.21-4.12,105.34-3.51,32.2.55,63.94,8,96.13,9.27,53.65,2.19,106.3-10.94,159.81-13.19,51.71-2.18,103.52.23,155.24.92,68.43.91,137.18,8.34,205.52,6.51"/><path class="cls-7" d="M.2,476.29c35.12-.57,70.18-5.62,105.3-4.9,32.48.67,64.17,10.46,96.62,12.21,54,2.9,106.14-14.85,159.86-18.43,51.9-3.46,104-1,155.91-.5,68.26.65,136.28,12.61,204.35,11.62"/><path class="cls-8" d="M.2,469.39c35.1-.78,70.12-7.16,105.24-6.34,32.77.77,64.38,12.92,97.11,15.11,54.56,3.64,106-18.85,160-23.93,52.37-4.92,105-2.57,157.48-2.42,30.36.08,60.92-.8,91.13,3.46,37.18,5.25,73.48,14,111,14.13"/><path class="cls-9" d="M.2,462.56c35.09-1,70.05-8.74,105.17-7.83,33.07.85,64.56,15.36,97.59,18,55.23,4.41,105.91-22.93,160.3-29.55,53.05-6.47,106.49-4.35,159.71-4.67,30.26-.19,60.6-1.14,90.6,4.71,36.47,7.12,71.57,18.38,108.67,19.36"/><path class="cls-10" d="M.2,455.78c35.08-1.26,70-10.31,105.09-9.32,33.4.94,64.74,17.79,98.08,20.88,56,5.18,105.78-27.08,160.57-35.21,53.85-8,108.24-6.16,162.36-7,30.25-.48,60.32-1.62,90.14,6,35.59,9.05,69.23,22.86,105.8,24.73"/><path class="cls-11" d="M.2,449.05c35.08-1.48,69.9-11.87,105-10.78,33.74,1,64.9,20.23,98.57,23.77,56.7,6,105.62-31.22,160.79-40.76,54.7-9.46,110.12-7.85,165.19-9.28,30.3-.78,60.1-2.25,89.76,7.13,34.64,10.95,66.66,27.23,102.71,29.95"/><path class="cls-12" d="M.2,442.39c35.08-1.7,69.83-13.4,105-12.2,34.07,1.17,65,22.68,99.06,26.69,57.38,6.78,105.38-35.34,160.88-46.1s112-9.27,168-11.25c30.38-1.07,60-3,89.46,8.14,33.72,12.73,64.08,31.3,99.68,34.75"/><path class="cls-13" d="M.2,435.78c35.09-1.87,69.79-14.86,105-13.52,34.42,1.32,65.21,25.15,99.56,29.64,58,7.58,105-39.37,160.79-51.1C421.76,389,479.18,390.53,536,388.07c30.45-1.33,60-3.79,89.25,8.91,32.91,14.27,61.69,34.87,97,38.84"/><path class="cls-14" d="M.2,429.23c35.11-2,69.78-16.25,105-14.72C140,416,170.55,442.15,205.26,447.13c24.77,3.55,48.77-1.44,71.27-14.73,30-17.74,55.91-33.53,89.18-40.9,56.79-12.58,115-10.69,172.46-13.54,30.46-1.51,60.09-4.56,89.16,9.38,32.3,15.49,59.72,37.79,94.91,41.94"/><path class="cls-15" d="M.2,422.74C35.35,420.63,70,405.19,105.25,407s65.53,30.18,100.62,35.65c24.84,3.87,48.61-1.66,70.77-16.06,29.94-19.46,55.15-35.85,89-43.52,57.08-12.93,115.9-10.37,173.68-13.46,30.38-1.63,60.33-5.22,89.17,9.45,32,16.28,58.41,39.88,93.73,43.76"/><path class="cls-16" d="M.2,416.31c35.16-2.09,69.81-17.74,105.06-15.94s65.55,30.56,100.7,36.11c24.86,3.92,48.59-1.7,70.69-16.25,29.93-19.71,55-36.16,89-43.84,57.12-12.91,116-10.24,173.83-13.36,30.36-1.64,60.37-5.31,89.18,9.43,32,16.36,58.26,40.11,93.61,43.91"/><path class="cls-17" d="M.2,409.94c35.14-2,69.76-17.13,105-15.5,35,1.63,65.47,29.22,100.41,34.49,24.81,3.75,48.68-1.56,71-15.54,30-18.81,55.45-35,89.13-42.54,57.09-12.77,115.82-10.54,173.58-13.6,30.44-1.6,60.26-5,89.19,9.48,32,16,58.62,39.21,93.78,43.27"/><path class="cls-18" d="M.2,403.62c35.12-1.95,69.71-16.52,104.9-15,34.79,1.45,65.4,27.85,100.13,32.87C230,425,254,420,276.46,406.62c30.05-17.9,55.83-33.73,89.21-41C422.71,353.1,481.26,355,538.94,352c30.49-1.57,60.2-4.8,89.26,9.38,32,15.63,59.06,38.09,94,42.28"/><path class="cls-19" d="M.2,397.37c35.09-1.88,69.67-15.91,104.82-14.6,34.6,1.28,65.32,26.5,99.85,31.26,24.73,3.4,48.84-1.34,71.5-14.13,30.06-17,56.13-32.33,89.19-39.33,57-12.07,115.33-10.4,172.89-13.24,30.55-1.51,60.2-4.54,89.4,9.18,32.09,15.09,59.58,36.74,94.39,40.95"/><path class="cls-20" d="M.2,391.18C35.27,389.37,69.82,375.88,105,377c34.4,1.12,65.22,25.14,99.55,29.64,58,7.61,105-39.53,160.89-50.87,56.87-11.55,115-10,172.45-12.7,30.58-1.44,60.23-4.3,89.57,8.87,32.19,14.44,60.16,35.19,94.83,39.31"/><path class="cls-21" d="M.2,385c35-1.73,69.57-14.69,104.67-13.71,34.21.95,65.14,23.78,99.27,28,57.7,7.18,105.23-37.42,161-48.14,56.76-10.92,114.72-9.4,172-12,30.6-1.37,60.32-4.06,89.81,8.47,32.3,13.72,60.78,33.48,95.32,37.42"/><path class="cls-22" d="M.2,379c35-1.66,69.53-14.08,104.59-13.27,34,.79,65.05,22.42,99,26.42,57.37,6.75,105.42-35.26,161.06-45.28,56.64-10.19,114.37-8.65,171.45-11,30.62-1.28,60.43-3.81,90.07,8,32.45,12.92,61.45,31.61,95.88,35.31"/><path class="cls-23" d="M.2,373c35-1.6,69.48-13.47,104.51-12.82,33.84.62,65,21.05,98.71,24.8,57,6.32,105.58-33.08,161.08-42.3,56.49-9.39,114-7.77,170.88-10,30.64-1.19,60.58-3.57,90.37,7.44,32.61,12.07,62.15,29.62,96.49,33"/><path class="cls-24" d="M.2,367c35-1.52,69.44-12.86,104.43-12.38,33.65.47,64.86,19.69,98.42,23.19,56.64,5.9,105.74-30.88,161.06-39.24,56.35-8.51,113.63-6.77,170.29-8.82,30.66-1.1,60.77-3.34,90.7,6.84,32.78,11.16,62.86,27.52,97.14,30.55"/><path class="cls-25" d="M.2,361.12c34.93-1.45,69.4-12.26,104.36-11.93,33.46.31,64.75,18.32,98.13,21.57,56.24,5.48,105.87-28.67,161-36.1,56.2-7.58,113.22-5.7,169.67-7.56,30.69-1,61-3.12,91,6.2,33,10.21,63.58,25.34,97.82,28"/><path class="cls-26" d="M.2,355.29c34.91-1.38,69.35-11.65,104.28-11.48,33.28.15,64.65,16.95,97.85,20,55.85,5.06,106-26.46,160.94-32.93,56-6.6,112.81-4.56,169-6.23,30.73-.92,61.18-2.9,91.41,5.53,33.16,9.24,64.3,23.1,98.52,25.32"/><path class="cls-27" d="M.2,349.53c34.88-1.31,69.31-11,104.2-11,33.11,0,64.54,15.58,97.56,18.34,55.47,4.65,106.1-24.25,160.86-29.72,55.88-5.58,112.38-3.38,168.41-4.87,30.77-.82,61.4-2.69,91.78,4.84,33.35,8.27,65,20.83,99.23,22.63"/><path class="cls-28" d="M.2,343.83c34.85-1.24,69.27-10.44,104.12-10.59,32.93-.15,64.43,14.2,97.28,16.73,55.11,4.23,106.2-22.07,160.78-26.52,55.72-4.54,111.94-2.2,167.77-3.51,30.82-.72,61.62-2.48,92.14,4.16,33.56,7.29,65.71,18.55,100,19.93"/><path class="cls-29" d="M.2,338.19C35,337,69.43,328.36,104.24,328c32.76-.29,64.31,12.83,97,15.12,54.78,3.84,106.3-19.89,160.7-23.32,55.56-3.5,111.5-1,167.13-2.17,30.9-.62,61.85-2.27,92.52,3.48,33.75,6.33,66.36,16.29,100.65,17.25"/><path class="cls-30" d="M.2,332.62c34.78-1.1,69.19-9.23,104-9.7,32.59-.45,64.18,11.44,96.7,13.5,54.49,3.44,106.41-17.76,160.65-20.17,55.41-2.47,111.05.09,166.51-.87,31-.54,62.06-2.08,92.87,2.82,33.94,5.39,67,14.07,101.34,14.64"/><path class="cls-31" d="M.2,327.11c34.75-1,69.15-8.63,103.89-9.26,32.43-.59,64,10.07,96.42,11.89,54.25,3.05,106.51-15.65,160.61-17.07,55.26-1.46,110.61,1.14,165.91.34,31.06-.44,62.26-1.87,93.2,2.2,34.14,4.49,67.58,11.91,102,12.14"/><path class="cls-32" d="M.2,321.66c34.72-1,69.1-8,103.81-8.81,32.27-.73,63.92,8.68,96.14,10.27,54,2.68,106.62-13.58,160.61-14.05,55.11-.48,110.19,2.1,165.33,1.46,31.15-.37,62.45-1.67,93.52,1.62,34.31,3.64,68.12,9.85,102.63,9.77"/><path class="cls-33" d="M.2,316.28c34.69-.89,69.06-7.42,103.73-8.36,32.12-.88,63.78,7.29,95.86,8.66,53.91,2.29,106.75-11.56,160.65-11.14,55,.43,109.78,2.95,164.78,2.43,65.91-.62,131.3,9.32,197,8.68"/><path class="cls-34" d="M.2,311c34.66-.81,69-6.82,103.65-7.92,32-1,63.63,5.92,95.57,7,53.83,1.91,106.91-9.5,160.75-8.34,54.83,1.18,109.42,3.63,164.28,3.25,66-.47,131.88,7.24,197.79,6.25"/><path class="cls-35" d="M.2,305.71c34.62-.74,69-6.22,103.58-7.47,31.83-1.15,63.47,4.52,95.28,5.43,53.8,1.54,107.08-7.58,160.9-5.69,54.7,1.92,109.09,4.14,163.83,3.88,66.17-.33,132.34,5.34,198.45,4.15"/><path class="cls-36" d="M.2,300.52c34.59-.67,68.94-5.61,103.5-7,31.7-1.29,63.31,3.13,95,3.82,53.82,1.16,107.29-5.72,161.12-3.21,120.45,5.62,241.9,8.94,362.42,6.73"/><path class="cls-37" d="M.2,295.4c34.55-.6,68.9-5,103.42-6.57,31.58-1.43,63.14,1.74,94.71,2.2,53.89.79,107.55-3.9,161.43-.9,120.51,6.71,241.86,7.49,362.48,5.61"/><path class="cls-38" d="M.2,290.35C120,288.5,239.91,278.6,359.79,286c120.54,7.44,241.78,5.85,362.45,4.69"/><path class="cls-39" d="M.2,285.36c120.05-1.68,239.57-11.35,359.72-3.64,120.55,7.74,241.64,4,362.32,4"/><path class="cls-40" d="M.2,280.44q361,0,722,.39"/><path class="cls-41" d="M.2,275.58q361,.89,722,.41"/><path class="cls-42" d="M.2,270.79c240.71,1.46,481.29.42,722,.43"/><path class="cls-43" d="M.2,266.07c66.59.53,133.11-2,199.69.71C254.3,269,308.13,261.37,362.4,263c120,3.65,239.83,3.48,359.84,3.49"/><path class="cls-44" d="M.2,261.42c66.58.55,133-3.23,199.58.71,54.84,3.24,108.52-7.4,163.09-5.07,119.8,5.12,239.46,4.82,359.37,4.82"/><path class="cls-45" d="M.2,256.84c66.59.47,132.85-4.65,199.41.59,25.73,2,51.84,4.48,77.61,1.71,29.14-3.13,56.66-9.59,86.13-8,119.64,6.59,239.06,6.14,358.89,6.15"/><path class="cls-46" d="M.2,252.32c66.62.32,132.62-6.21,199.19.37,25.76,2.55,52.08,5.67,77.91,2.36,29.45-3.77,56.59-11.73,86.53-9.71,53.19,3.6,105.34,7.34,158.7,7.38q99.86.09,199.71.1"/><path class="cls-47" d="M.2,247.88c66.67.09,132.32-7.92,198.93.06,25.79,3.09,52.35,6.89,78.25,3.08,29.78-4.39,56.47-13.88,86.92-11.44,53.15,4.27,104.84,8.67,158.23,8.71q99.86.09,199.71.11"/><path class="cls-48" d="M.2,243.5c66.77-.19,132-9.73,198.65-.32,25.8,3.64,52.63,8.16,78.6,3.86,30.12-5,56.33-16,87.33-13.14,27.13,2.52,53.62,9.4,80.91,10,25.6.53,51.23,0,76.84.07q99.86.09,199.71.11"/><path class="cls-49" d="M.2,239.2c66.9-.52,131.52-11.64,198.33-.77,25.82,4.2,52.93,9.46,79,4.69,30.48-5.59,56.17-18.19,87.75-14.84,27,2.86,53.21,10.66,80.43,11.29,25.59.59,51.24.05,76.84.07q99.86.09,199.71.11"/><path class="cls-50" d="M.2,235c67.08-.89,131-13.6,198-1.25,25.83,4.76,53.23,10.78,79.37,5.55,30.84-6.17,56-20.36,88.16-16.53,26.92,3.21,52.79,11.91,80,12.61,25.59.67,51.24.06,76.84.08q99.86.09,199.71.11"/><path class="cls-51" d="M.2,230.79c67.32-1.28,130.44-15.6,197.65-1.76,25.84,5.31,53.55,12.12,79.78,6.44,31.2-6.75,55.8-22.56,88.58-18.22,26.81,3.55,52.34,13.16,79.48,13.94,25.58.74,51.25.05,76.84.08q99.86.09,199.71.12"/><path class="cls-52" d="M.2,226.7c33.76-.85,67-7,100.57-10.39,33.17-3.36,64.09.68,96.73,8.09,25.83,5.87,53.86,13.46,80.18,7.35,31.56-7.32,55.6-24.78,89-19.91,26.73,3.9,51.9,14.41,79,15.27,25.58.81,51.25,0,76.84.08q99.86.09,199.71.12"/><path class="cls-53" d="M.2,222.67c33.62-1,66.56-7.84,100-11.68s64.16.73,97,8.87c25.82,6.4,54.17,14.78,80.59,8.24,31.9-7.9,55.38-27,89.42-21.59,26.64,4.24,51.43,15.66,78.53,16.59,25.57.88,51.25.05,76.84.08q99.86.1,199.71.12"/><path class="cls-54" d="M.2,218.72c33.49-1.24,66.17-8.69,99.42-12.95,33.7-4.32,64.23.77,97.19,9.63,25.81,6.93,54.47,16.09,81,9.12,32.24-8.47,55.17-29.27,89.84-23.28,26.56,4.6,50.95,16.91,78.05,17.92,25.57,1,51.26.05,76.84.08q99.86.1,199.71.13"/><path class="cls-55" d="M.2,214.84c33.37-1.42,65.78-9.51,98.88-14.19,34-4.8,64.3.84,97.4,10.39,25.79,7.45,54.76,17.39,81.38,10,16.69-4.64,30.82-17.49,47.46-22.82,14.18-4.54,28.38-4.84,42.79-2.15,26.49,4.95,50.46,18.15,77.58,19.24,25.56,1,51.27.06,76.84.08q99.86.12,199.71.14"/><path class="cls-56" d="M.2,211c33.27-1.57,65.41-10.3,98.35-15.36,34.21-5.26,64.39.91,97.62,11.14,25.77,7.93,55.05,18.64,81.76,10.79,16.9-5,31-18.66,47.81-24.37,14.19-4.81,28.4-5.2,42.85-2.3,26.43,5.3,50,19.4,77.1,20.56,25.55,1.1,51.27.06,76.84.09q99.86.1,199.71.14"/><path class="cls-57" d="M.2,207.29c33.18-1.7,65.06-11,97.87-16.45,34.45-5.71,64.47,1,97.83,11.87,25.74,8.4,55.3,19.85,82.1,11.56,17.11-5.29,31.11-19.84,48.16-25.94,14.21-5.08,28.41-5.56,42.91-2.45,26.36,5.66,49.43,20.64,76.62,21.89,25.54,1.16,51.28.06,76.84.09q99.86.1,199.71.14"/><path class="cls-58" d="M.2,203.63c33.1-1.81,64.74-11.69,97.42-17.45,34.69-6.12,64.57,1.09,98,12.59,25.7,8.84,55.53,21,82.41,12.25,17.31-5.64,31.26-21,48.51-27.51a72.74,72.74,0,0,1,43-2.61c26.32,6,48.9,21.89,76.15,23.22,25.53,1.24,51.29.06,76.84.09q99.86.12,199.71.14"/><path class="cls-59" d="M.2,200c33.05-1.87,64.46-12.27,97-18.33,34.9-6.5,64.68,1.2,98.23,13.28,25.67,9.25,55.74,22.1,82.7,12.87,17.5-6,31.38-22.23,48.84-29.11A69.39,69.39,0,0,1,370,176c26.26,6.39,48.35,23.13,75.67,24.54,25.52,1.31,51.29.06,76.84.09q99.86.12,199.71.15"/><path class="cls-60" d="M.2,196.52c33-1.89,64.21-12.76,96.7-19.08,35.09-6.81,64.79,1.33,98.4,14,25.64,9.63,55.94,23.13,82.95,13.39,17.7-6.38,31.5-23.45,49.17-30.72a66.38,66.38,0,0,1,43.08-2.9c26.22,6.75,47.79,24.37,75.19,25.86,25.51,1.39,51.3.07,76.84.1q99.86.12,199.71.15"/><path class="cls-61" d="M.2,193.08c33-1.86,64-13.16,96.44-19.67,35.27-7.08,64.9,1.47,98.57,14.6,25.6,10,56.08,24.07,83.14,13.81,17.88-6.78,31.61-24.69,49.49-32.35A63.57,63.57,0,0,1,371,166.41c26.19,7.13,47.23,25.61,74.72,27.19,25.5,1.46,51.31.07,76.84.1q99.86.13,199.71.16"/><path class="cls-62" d="M.2,189.71c33-1.78,63.85-13.43,96.26-20.08,35.41-7.28,65,1.62,98.72,15.2,25.56,10.3,56.2,24.92,83.28,14.11,18.06-7.2,31.7-25.94,49.81-34,14.27-6.36,28.46-7.43,43.18-3.21,26.15,7.5,46.64,26.85,74.24,28.51,25.49,1.54,51.32.07,76.84.1q99.86.14,199.71.16"/><path class="cls-63" d="M.2,186.41c33-1.63,63.76-13.57,96.16-20.3,35.54-7.39,65.14,1.79,98.86,15.77,25.52,10.59,56.28,25.68,83.37,14.29,18.22-7.66,31.76-27.22,50.1-35.69,14.28-6.6,28.47-7.81,43.23-3.36C398.05,165,418,185.2,445.69,187c25.48,1.61,51.33.07,76.84.1q99.86.13,199.71.17"/><path class="cls-64" d="M.2,183.19c33-2,63.74-13.95,96.12-20.48,35.61-7.18,65.3,2.3,99,16.31,25.48,10.58,56.33,25.67,83.35,14.06,33.7-14.49,52.83-51.46,92.52-40.44,26.21,7.27,47,28.39,74.45,31.21,25.36,2.61,51.4.7,76.8.39,66.59-.81,133.18.75,199.77-.22"/><path class="cls-65" d="M.2,180c32.88-2.41,63.75-14.31,96.12-20.59,35.66-6.93,65.45,2.85,99.2,16.83C221,186.81,251.88,201.83,278.81,190c33.3-14.6,52.19-51.61,91.57-41.8,26.43,6.59,48,28.65,75.27,32.6,25.21,3.65,51.49,1.34,76.76.64,66.62-1.86,133.23,1.43,199.83-.58"/><path class="cls-66" d="M.2,177C33,174.16,64,162.34,96.34,156.32c35.71-6.65,65.6,3.41,99.37,17.34,25.38,10.47,56.38,25.41,83.21,13.4,32.91-14.73,51.57-51.78,90.63-43.15,26.77,5.91,48.92,28.94,76.08,34,25.06,4.65,51.58,1.93,76.74.82,66.64-3,133.26,2.13,199.87-.87"/><path class="cls-67" d="M.2,174C32.93,170.8,64,159.06,96.39,153.32c35.75-6.33,65.75,4,99.53,17.84,25.33,10.4,56.4,25.24,83.12,13,32.51-14.87,50.95-52,89.67-44.52,27.25,5.26,49.76,29.19,76.9,35.36,24.9,5.66,51.69,2.5,76.73,1,66.67-4.08,133.27,2.85,199.9-1.11"/><path class="cls-68" d="M.2,171.06c32.66-3.53,63.87-15.17,96.26-20.6,35.78-6,65.9,4.53,99.69,18.33,25.28,10.32,56.41,25,83,12.58,32.12-15,50.33-52.21,88.71-45.89,27.84,4.58,50.55,29.31,77.73,36.74,24.67,6.74,51.85,3,76.72,1C589,168,655.6,176.83,722.24,172"/><path class="cls-69" d="M.2,168.21c32.61-3.85,63.94-15.38,96.36-20.49,35.8-5.65,66,5.09,99.84,18.81,25.23,10.23,56.4,24.82,82.88,12.12C311,163.44,329,126.18,367,131.38c28.51,3.89,51.26,29.46,78.54,38.11,24.47,7.76,52,3.47,76.74,1.07,66.75-6.47,133.26,4.32,199.92-1.42"/><path class="cls-70" d="M.2,165.45c32.57-4.17,64-15.56,96.48-20.34,35.81-5.28,66.17,5.65,100,19.28C221.84,174.53,253.06,189,279.41,176c31.36-15.4,49.09-52.76,86.79-48.67,29.27,3.19,51.93,29.62,79.36,39.49,24.27,8.74,52.18,3.89,76.76,1.06,66.81-7.72,133.23,5.08,199.92-1.51"/><path class="cls-71" d="M.2,162.76c32.53-4.47,64.12-15.71,96.61-20.14,35.83-4.89,66.32,6.22,100.14,19.74,25.12,10,56.38,24.3,82.59,11.11,31-15.61,48.48-53.08,85.82-50.06,30.1,2.43,52.56,29.78,80.18,40.86,24.1,9.65,52.33,4.28,76.79,1,66.88-9,133.17,5.86,199.91-1.56"/><path class="cls-72" d="M.2,160.15C32.71,155.4,64.42,144.31,97,140.24c35.82-4.48,66.45,6.79,100.28,20.2,25.06,9.93,56.36,24,82.42,10.56,30.63-15.82,47.86-53.42,84.85-51.46,31,1.64,53.16,30,81,42.23,23.94,10.54,52.46,4.64,76.82.9,67-10.29,133.1,6.66,199.89-1.55"/><path class="cls-73" d="M.2,157.61c32-4.93,63.38-15.58,95.49-19.45,35.09-4.24,65.32,6,98.51,19.13,28.81,11.42,62.39,26.58,91.23,7.71,27.53-18,43.95-50,78.24-49,28.49.79,50.49,23.71,74.84,39,26.64,16.73,58.62,9.53,86.83,4.61,66-11.51,131,7.9,196.9-1"/><path class="cls-74" d="M.2,155.15c32-5.18,63.5-15.66,95.67-19.15,35.09-3.82,65.46,6.55,98.65,19.59,28.75,11.3,62.37,26.25,91,7,27.17-18.22,43.36-50.36,77.32-50.38,29.09,0,51.28,23.5,75.61,40,26.59,18,58.55,10.32,86.94,4.8,66.13-12.84,130.91,8.79,196.85-.85"/><path class="cls-75" d="M.2,152.78c32-5.43,63.63-15.73,95.87-18.84,35.08-3.38,65.6,7.15,98.79,20.07,28.69,11.16,62.33,25.88,90.74,6.34,26.83-18.45,42.77-50.75,76.4-51.73,29.69-.87,52.09,23.31,76.39,40.91,26.56,19.23,58.47,11.08,87.05,5,66.27-14.21,130.76,9.68,196.8-.69"/><path class="cls-76" d="M.2,150.48C32.22,144.82,64,134.7,96.28,132c35.06-2.94,65.73,7.74,98.92,20.53,28.63,11,62.3,25.51,90.49,5.63,26.48-18.69,42.17-51.16,75.48-53.09,30.27-1.75,52.9,23.16,77.16,41.86,26.55,20.46,58.37,11.85,87.17,5.09,66.42-15.59,130.59,10.59,196.74-.5"/><path class="cls-77" d="M.2,148.26c32-5.89,63.9-15.81,96.3-18.11,35-2.5,65.86,8.33,99.05,21,28.57,10.89,62.27,25.13,90.23,4.89,26.15-18.92,41.57-51.59,74.56-54.43,30.85-2.66,53.73,23,77.93,42.8,26.54,21.69,58.26,12.6,87.29,5.19,32.21-8.22,61.92-9.84,94.6-5.06,34.43,5,67.47,10.95,102.08,4.78"/><path class="cls-78" d="M.2,146.11c32.07-6.1,64-15.81,96.53-17.71,35-2,66,8.92,99.18,21.44,28.52,10.75,62.23,24.74,90,4.14,25.82-19.18,41-52,73.64-55.79,31.41-3.59,54.57,23,78.69,43.75,26.56,22.9,58.15,13.35,87.43,5.28,32.37-8.93,61.79-10.73,94.71-5.48,34.41,5.5,67.25,12,101.9,5.44"/><path class="cls-79" d="M.2,144.05c32.11-6.31,64.19-15.82,96.77-17.3,35-1.59,66.11,9.51,99.31,21.89C224.74,159.25,258.48,173,286,152c25.5-19.45,40.37-52.53,72.71-57.14,32-4.56,55.43,22.88,79.47,44.69,26.57,24.1,58,14.09,87.56,5.34,32.53-9.63,61.66-11.63,94.82-5.88,34.39,6,67,13,101.72,6.1"/><path class="cls-80" d="M.2,142.07c32.15-6.53,64.34-15.81,97-16.87,35-1.13,66.24,10.1,99.44,22.33,28.4,10.47,62.16,23.94,89.4,2.61,25.18-19.72,39.76-53,71.79-58.5,32.51-5.55,56.29,22.86,80.24,45.64,26.6,25.3,57.88,14.83,87.69,5.39,32.71-10.36,61.51-12.55,94.93-6.29,34.37,6.45,66.81,14,101.54,6.78"/><path class="cls-81" d="M.2,140.17c32.2-6.73,64.48-15.8,97.26-16.44,34.93-.67,66.36,10.69,99.57,22.79,28.34,10.32,62.13,23.53,89.12,1.82,24.87-20,39.14-53.55,70.86-59.85,33-6.58,57.16,22.85,81,46.58,26.62,26.49,57.74,15.58,87.83,5.43,32.87-11.08,61.36-13.49,95-6.7,34.36,6.93,66.59,15,101.36,7.47"/><path class="cls-82" d="M.2,138.35c32.26-6.94,64.63-15.79,97.51-16,34.9-.22,66.47,11.28,99.7,23.23,28.28,10.17,62.1,23.12,88.83,1,24.57-20.29,38.52-54.08,69.93-61.21,33.56-7.61,58.05,22.89,81.79,47.53,26.65,27.67,57.59,16.33,88,5.46,33-11.81,61.19-14.44,95.14-7.11,34.33,7.42,66.35,16.11,101.17,8.18"/><path class="cls-83" d="M.2,136.61C32.53,129.46,65,120.84,98,121.06c34.87.24,66.59,11.87,99.83,23.68,28.23,10,62.07,22.71,88.54.25,24.28-20.6,37.89-54.65,69-62.58,34.06-8.67,58.93,23,82.56,48.48,26.69,28.84,57.43,17.09,88.11,5.49,33.21-12.55,61-15.41,95.25-7.52s66.1,17.16,101,8.88"/><path class="cls-84" d="M.2,135c32.4-7.35,64.92-15.75,98-15.1,34.84.69,66.7,12.46,100,24.12,28.17,9.88,62.05,22.3,88.25-.54,24-20.91,37.25-55.21,68.09-63.93,34.56-9.77,59.82,23,83.33,49.42,26.72,30,57.26,17.85,88.24,5.52,33.38-13.28,60.87-16.38,95.36-7.93,34.28,8.39,65.87,18.22,100.8,9.58"/><path class="cls-85" d="M.2,133.37c32.48-7.55,65.07-15.73,98.27-14.65,34.8,1.13,66.79,13.05,100.08,24.57,28.12,9.73,62,21.89,88-1.33,23.71-21.24,36.61-55.81,67.17-65.29,35-10.88,60.72,23.15,84.09,50.37,26.77,31.16,57.1,18.62,88.39,5.55,33.54-14,60.71-17.37,95.47-8.35,34.25,8.88,65.62,19.29,100.61,10.29"/><path class="cls-86" d="M.2,131.88c32.56-7.77,65.2-15.73,98.51-14.22,34.78,1.58,66.9,13.63,100.21,25,28.07,9.59,62,21.48,87.68-2.12,23.44-21.56,36-56.4,66.24-66.64,35.51-12,61.63,23.3,84.87,51.31,26.81,32.32,56.92,19.42,88.53,5.59,33.69-14.75,60.54-18.35,95.57-8.76,34.22,9.36,65.38,20.35,100.43,11"/><path class="cls-87" d="M.2,130.47c32.65-8,65.33-15.73,98.76-13.79,34.75,2,67,14.21,100.34,25.46,28,9.45,62,21.09,87.4-2.89,23.17-21.9,35.29-57,65.31-68,36-13.15,62.54,23.47,85.64,52.26,26.85,33.46,56.74,20.23,88.66,5.63C560.15,113.67,586.7,109.81,622,120c34.18,9.85,65.13,21.41,100.24,11.67"/><path class="cls-88" d="M.2,129.14c32.74-8.2,65.46-15.73,99-13.38,34.73,2.44,67.08,14.8,100.46,25.92,28,9.31,62,20.7,87.13-3.66,22.91-22.24,34.61-57.65,64.39-69.36,36.41-14.31,63.45,23.66,86.41,53.21,26.89,34.59,56.54,21,88.79,5.69,34-16.18,60.24-20.32,95.8-9.57,34.14,10.31,64.88,22.45,100.06,12.33"/><path class="cls-89" d="M.2,127.89c32.83-8.42,65.58-15.75,99.23-13,34.71,2.86,67.17,15.38,100.59,26.37,27.9,9.18,62,20.33,86.86-4.41,22.66-22.59,33.93-58.29,63.46-70.71,36.85-15.5,64.37,23.87,87.19,54.15,26.93,35.73,56.34,21.91,88.92,5.77,34.11-16.89,60.09-21.31,95.9-10,34.11,10.79,64.65,23.49,99.89,13"/><path class="cls-90" d="M.2,126.72c32.93-8.65,65.68-15.77,99.45-12.59,34.7,3.27,67.26,16,100.73,26.82,27.83,9.05,62.05,20,86.59-5.15,22.42-23,33.24-58.94,62.54-72.06,37.28-16.7,65.29,24.11,88,55.09,27,36.86,56.12,22.79,89,5.87,34.23-17.58,60-22.28,96-10.38,34.07,11.24,64.41,24.52,99.72,13.61"/><path class="cls-91" d="M.2,125.64c33-8.88,65.78-15.82,99.66-12.24,34.69,3.68,67.34,16.53,100.86,27.29,27.78,8.91,62.08,19.62,86.33-5.87,22.19-23.32,32.55-59.6,61.63-73.42,37.69-17.91,66.21,24.37,88.73,56,27,38,55.89,23.69,89.17,6,34.33-18.26,59.82-23.25,96.11-10.78,34,11.69,64.18,25.53,99.55,14.2"/><path class="cls-92" d="M.2,124.65c33.12-9.14,65.87-15.89,99.86-11.91,34.68,4.06,67.42,17.09,101,27.74,27.71,8.79,62.12,19.29,86.08-6.57,21.95-23.68,31.84-60.26,60.71-74.76C385.94,40,415,83.8,437.34,116.13c27,39.08,55.66,24.63,89.29,6.15,34.44-18.93,59.7-24.22,96.22-11.19,34,12.14,64,26.53,99.39,14.77"/><path class="cls-93" d="M.2,123.73c33.21-9.38,66-16,100.05-11.61,34.67,4.45,67.49,17.66,101.13,28.22,27.65,8.67,62.17,19,85.85-7.25C309,109,318.34,72.16,347,57c38.49-20.38,68.06,24.94,90.27,57.92,27.07,40.19,55.41,25.6,89.39,6.33,34.53-19.57,59.59-25.16,96.33-11.57,34,12.55,63.74,27.49,99.24,15.3"/><path class="cls-94" d="M.2,122.91c33.3-9.66,66-16.09,100.22-11.35,34.68,4.81,67.57,18.23,101.28,28.69,27.57,8.56,62.23,18.68,85.61-7.9,21.51-24.45,30.39-61.61,58.87-77.46,38.88-21.63,69,25.26,91,58.87,27.1,41.28,55.13,26.61,89.49,6.55,34.61-20.2,59.49-26.09,96.43-12,33.92,13,63.54,28.45,99.1,15.8"/><path class="cls-95" d="M.2,122.16c33.39-9.92,66.06-16.22,100.38-11.11,34.68,5.17,67.64,18.78,101.41,29.16,27.51,8.46,62.31,18.41,85.41-8.52,21.29-24.83,29.65-62.28,58-78.8,39.25-22.9,69.9,25.6,91.81,59.82,27.13,42.36,54.84,27.65,89.59,6.8s59.39-27,96.53-12.35c33.88,13.36,63.34,29.36,99,16.24"/><path class="cls-96" d="M.2,121.51c33.47-10.22,66.09-16.39,100.51-10.93,34.71,5.51,67.72,19.34,101.57,29.65,27.43,8.35,62.39,18.16,85.2-9.12,21.08-25.22,28.9-63,57-80.13,39.62-24.19,70.83,25.94,92.59,60.75,27.15,43.44,54.53,28.75,89.67,7.1C561.49,97.44,586.08,91,623.4,106.1c33.86,13.75,63.17,30.26,98.84,16.65"/><path class="cls-97" d="M.2,120.93c33-10.35,65.15-16.5,99.15-11s66.66,19,99.91,29.37C225.65,147.51,262,159,285,133.82c22.71-24.77,29.38-67,58.57-85,45.91-28.22,74.34,37.55,99.4,73,25.68,36.37,58.42,12.39,86.94-5.6,34.18-21.55,58.57-25.88,95-10.45,33.28,14.08,62.12,30.33,97.25,16.37"/><path class="cls-98" d="M.2,120.45c33.08-10.67,65.15-16.74,99.24-10.94s66.74,19.55,100.07,29.88c26.32,8.16,62.82,19.5,85.63-5.95,22.53-25.16,28.58-67.77,57.62-86.36C389,17.47,418.25,85.24,443,121.38c25.6,37.38,58.3,12.91,87-5.58,34.22-22.08,58.52-26.64,95.15-10.75,33.26,14.42,62,31.13,97.14,16.65"/><path class="cls-99" d="M.2,120.05c33.14-11,65.13-17,99.32-10.9s66.8,20.09,100.21,30.4c26.25,8.1,62.94,19.34,85.51-6.41C307.62,107.6,313,64.65,341.93,45.41,388.51,14.42,418.56,84.2,443,121c25.5,38.4,58.15,13.49,87-5.5,34.25-22.59,58.48-27.37,95.24-11,33.24,14.75,61.83,31.89,97,16.87"/><path class="cls-100" d="M.2,119.73c33.19-11.32,65.1-17.31,99.37-10.91s66.88,20.64,100.37,30.93c26.17,8,63.07,19.21,85.4-6.84s27.27-68.34,55.75-89.07c46.2-33.65,78.48,40.48,101.9,76.83,25.4,39.43,58,14.12,87-5.38C564.2,92.23,588.39,87.24,625.27,104c33.23,15.07,61.71,32.63,97,17"/><path class="cls-101" d="M.2,119.51c33.23-11.67,65-17.66,99.4-11S166.54,129.7,200.12,140c26.09,8,63.21,19.11,85.32-7.22s26.49-69,54.81-90.42c46.48-35.1,79.67,41.18,102.74,78.1,25.28,40.45,57.79,14.81,86.93-5.19,34.26-23.51,58.42-28.71,95.41-11.63,33.24,15.36,61.61,33.31,96.91,17.14"/><path class="cls-102" d="M.2,119.37c33.25-12,65-18,99.4-11.12s67,21.71,100.68,32c26,8,63.36,19.05,85.26-7.56,22-26.8,25.69-69.72,53.87-91.76C386.16,4.4,420.27,82.83,443,120.32c25.15,41.48,57.56,15.56,86.9-4.94,34.24-23.92,58.41-29.33,95.49-11.91,33.26,15.62,61.53,33.94,96.86,17.16"/><path class="cls-103" d="M.2,119.32C33.47,106.9,65.05,100.85,99.57,108s67.09,22.22,100.85,32.55c25.92,7.93,63.53,19,85.21-7.84,21.91-27.17,24.89-70.41,52.95-93.09,47-38,82,42.6,104.41,80.64,25,42.52,57.29,16.38,86.85-4.62,34.22-24.31,58.41-29.91,95.58-12.19,33.28,15.87,61.46,34.53,96.82,17.12"/></g></g></g></svg>